<?xml version="1.0" standalone="no"?>
<!DOCTYPE svg PUBLIC "-//W3C//DTD SVG 20010904//EN"
 "http://www.w3.org/TR/2001/REC-SVG-20010904/DTD/svg10.dtd">
<svg version="1.0" xmlns="http://www.w3.org/2000/svg"
 width="640.000000pt" height="640.000000pt" viewBox="0 0 640.000000 640.000000"
 preserveAspectRatio="xMidYMid meet">
<metadata>
Created by potrace 1.11, written by Peter Selinger 2001-2013
</metadata>
<g transform="translate(0.000000,640.000000) scale(0.100000,-0.100000)"
fill="#000000" stroke="none">
<path d="M3810 6263 c-185 -29 -344 -77 -523 -157 l-58 -26 -48 25 c-273 138
-551 183 -776 126 -87 -23 -239 -94 -295 -138 -156 -126 -262 -293 -317 -502
-20 -76 -26 -126 -29 -241 -6 -285 55 -496 204 -703 64 -89 239 -271 412 -428
226 -206 479 -465 617 -634 37 -45 39 -51 18 -58 -9 -4 -94 73 -247 227 -254
254 -358 349 -518 476 -261 207 -491 330 -739 396 -85 23 -120 27 -296 30
-219 3 -326 -10 -493 -61 -399 -123 -653 -411 -665 -755 -7 -173 59 -409 160
-573 l24 -38 -39 -97 c-133 -332 -163 -619 -87 -837 120 -346 556 -487 1085
-350 319 82 759 300 1126 558 219 154 293 216 470 392 125 124 177 185 234
270 42 63 39 59 46 52 13 -12 -126 -179 -270 -323 -83 -83 -245 -231 -361
-330 -384 -327 -536 -495 -645 -711 -54 -109 -115 -302 -134 -428 -1 -5 -5
-15 -9 -22 -4 -6 -1 -14 5 -16 10 -4 10 -6 0 -6 -7 -1 -10 -6 -7 -11 3 -6 3
-20 0 -31 -6 -17 -9 -19 -16 -8 -11 19 -46 20 -61 1 -11 -14 -10 -15 7 -8 11
4 16 3 11 -1 -9 -9 -56 -12 -53 -3 3 9 -35 60 -45 60 -6 0 -5 -6 2 -15 9 -11
10 -18 1 -28 -6 -8 -7 -18 -3 -22 4 -5 1 -5 -6 -1 -7 5 -11 10 -8 13 10 11
-19 31 -31 21 -8 -6 -19 -6 -32 2 -12 6 -21 7 -21 3 0 -4 -5 -2 -12 5 -16 16
-35 15 -42 -3 -4 -10 1 -14 16 -12 13 1 22 -4 23 -16 2 -9 -1 -15 -6 -11 -5 3
-7 10 -4 15 4 5 -4 8 -17 6 -14 -1 -23 4 -24 13 -3 36 -5 41 -14 35 -5 -3 -7
-12 -3 -20 3 -8 0 -15 -7 -15 -6 0 -8 4 -5 10 3 5 2 10 -3 10 -5 0 -14 -10
-20 -22 l-10 -23 1 23 c1 12 9 25 19 28 14 4 16 9 8 24 -8 15 -6 18 8 15 9 -1
22 0 27 4 15 8 75 9 69 0 -2 -5 5 -6 17 -4 13 3 29 -1 38 -8 12 -10 13 -9 6 2
-5 9 -4 12 3 7 6 -4 9 -13 5 -21 -3 -8 0 -15 7 -15 7 0 10 8 7 19 -3 14 -1 18
9 14 8 -3 12 -9 9 -13 -3 -5 -1 -12 5 -15 6 -4 9 -3 8 2 -2 4 2 8 7 8 6 0 9
-4 7 -8 -1 -5 3 -7 10 -4 7 2 12 11 10 18 -2 8 0 11 4 7 4 -5 14 1 21 12 8 11
19 18 24 14 5 -3 -1 -14 -13 -25 -13 -11 -18 -19 -13 -18 24 3 36 -2 29 -12
-4 -8 -9 -7 -15 2 -5 8 -9 12 -10 9 0 -3 -2 -13 -4 -23 -2 -12 2 -17 13 -15
19 3 48 38 44 51 -1 5 3 5 10 1 10 -6 11 -4 0 7 -15 16 -16 33 -1 23 8 -4 7 0
-1 15 -9 18 -30 21 -30 5 0 -3 4 -2 10 1 5 3 10 2 10 -4 0 -20 -20 -21 -32 -1
-7 11 -17 20 -22 20 -4 0 -3 -6 3 -14 8 -10 9 -16 1 -21 -5 -3 -10 -1 -10 5 0
6 -4 8 -10 5 -5 -3 -22 7 -37 22 -14 15 -23 22 -19 16 14 -24 16 -55 3 -50 -7
2 -10 13 -9 23 3 17 1 16 -16 -4 -22 -25 -29 -20 -26 16 1 17 -2 20 -12 11 -7
-6 -16 -19 -19 -30 -4 -11 -11 -17 -16 -14 -5 3 -1 18 9 33 12 19 13 24 3 17
-11 -6 -13 -4 -7 10 5 15 2 14 -18 -6 -14 -13 -35 -33 -47 -44 l-21 -20 7 24
c6 21 5 23 -14 18 -16 -4 -21 0 -22 16 -1 21 -2 21 -6 2 -7 -28 -23 -46 -35
-39 -6 4 -4 10 6 16 9 5 16 14 16 21 0 8 -3 8 -9 -2 -7 -10 -13 -11 -30 -2
-12 7 -26 9 -32 5 -7 -4 -9 2 -5 17 3 13 3 18 0 11 -3 -6 -10 -10 -14 -7 -5 3
-12 0 -16 -7 -4 -7 -4 -10 1 -6 4 4 14 0 21 -10 20 -26 16 -37 -6 -17 -11 10
-20 13 -20 7 0 -7 -3 -11 -8 -10 -14 4 -52 -13 -52 -23 0 -6 -5 -7 -10 -4 -6
4 -9 9 -6 13 2 4 0 16 -5 27 -7 18 -8 18 -8 2 -1 -10 -5 -16 -11 -12 -5 3 -7
13 -4 23 5 14 4 14 -4 3 -6 -8 -8 -21 -5 -30 3 -11 0 -10 -13 4 -13 15 -15 16
-11 3 3 -9 0 -22 -8 -28 -10 -8 -13 -6 -14 12 -1 42 -4 58 -13 58 -11 0 -10
-7 3 -32 14 -25 5 -35 -15 -15 -8 8 -13 17 -11 19 3 3 -2 5 -10 5 -20 0 -19
-6 8 -28 36 -30 4 -22 -41 11 -23 16 -39 23 -36 16 3 -7 14 -17 25 -22 18 -8
18 -11 4 -29 -12 -16 -14 -17 -9 -2 7 18 -3 22 -24 8 -11 -7 -11 -9 2 -14 9
-4 13 -13 10 -21 -3 -9 -12 -12 -22 -8 -15 5 -15 4 -2 -12 8 -11 16 -14 18 -7
2 6 8 9 13 6 5 -4 6 0 3 8 -3 8 -1 18 4 21 6 3 12 -1 16 -9 3 -8 1 -17 -5 -20
-5 -4 -7 -11 -4 -16 3 -5 -2 -6 -11 -2 -11 4 -15 3 -10 -5 7 -11 -31 -38 -41
-28 -11 10 8 25 25 19 15 -6 15 -5 3 10 -13 16 -17 15 -49 -17 -19 -20 -39
-33 -43 -30 -5 3 -9 0 -9 -5 0 -6 -5 -11 -11 -11 -8 0 -8 5 1 15 11 13 9 15
-11 11 -13 -3 -26 -5 -29 -5 -3 -1 1 -5 8 -10 10 -6 10 -10 -3 -21 -13 -11
-14 -10 -9 4 4 11 2 15 -7 11 -12 -5 -24 -55 -13 -55 3 0 14 9 26 20 12 11 27
20 32 20 12 0 -44 -49 -57 -50 -5 0 -6 -4 -3 -9 3 -4 -6 -7 -19 -5 -27 2 -30
-3 -15 -26 7 -12 10 -12 10 -1 0 8 6 11 15 7 9 -3 18 1 21 9 4 8 11 15 16 15
6 0 4 -8 -3 -17 -12 -15 -12 -16 4 -10 11 4 28 1 40 -8 12 -8 16 -15 10 -15
-7 0 -15 5 -18 10 -3 6 -11 10 -17 10 -6 0 -6 -6 2 -15 7 -9 10 -18 7 -22 -10
-9 13 -33 31 -33 13 0 12 3 -4 14 -10 8 -16 18 -11 22 4 4 7 2 7 -5 0 -7 4 -9
10 -6 5 3 10 3 11 -2 0 -4 2 -18 3 -31 3 -26 -9 -38 -20 -21 -5 8 -3 9 6 4 9
-5 11 -4 6 4 -4 6 -11 9 -16 6 -4 -3 -11 1 -13 7 -4 9 -6 9 -6 -1 -1 -11 -5
-10 -16 5 -10 12 -14 14 -12 4 2 -8 2 -11 -1 -7 -2 4 -10 0 -18 -10 -13 -17
-14 -17 -8 2 4 14 3 16 -4 7 -5 -8 -13 -14 -17 -14 -13 0 -27 31 -19 44 5 7 2
8 -7 3 -12 -7 -12 -5 -1 6 11 12 14 12 22 -1 5 -8 10 -13 11 -10 0 3 2 16 5
29 4 20 2 22 -11 11 -8 -7 -15 -9 -15 -4 0 5 -4 3 -9 -5 -6 -9 -11 -10 -15 -2
-4 6 -2 11 3 11 6 0 11 5 11 12 0 9 -3 9 -12 0 -15 -15 -28 -15 -28 -1 0 5 4
8 9 4 5 -3 13 0 17 6 4 7 3 9 -4 6 -6 -5 -8 1 -4 15 3 14 2 19 -7 14 -6 -4 -9
-11 -6 -16 3 -5 2 -11 -3 -14 -4 -2 -8 11 -8 29 0 18 5 31 10 28 5 -4 6 0 1 8
-7 11 -5 11 10 -1 15 -12 17 -12 10 -1 -6 10 -4 12 5 6 9 -5 11 -4 6 3 -5 8
-1 10 11 5 12 -4 11 0 -6 14 -20 17 -22 21 -8 26 11 4 14 2 10 -9 -3 -7 0 -14
5 -14 6 0 9 8 7 18 -2 10 1 25 6 33 8 13 10 12 13 -11 0 -5 6 -9 11 -8 6 2 9
6 8 10 -2 4 3 5 10 2 22 -8 17 51 -5 65 -22 13 -24 3 -3 -13 13 -10 13 -13 -5
-24 -17 -10 -21 -10 -19 0 1 7 1 20 0 28 -1 13 -3 13 -10 1 -5 -8 -7 -20 -4
-28 3 -7 0 -13 -6 -13 -6 0 -11 5 -11 10 0 6 -5 10 -11 10 -8 0 -8 -4 0 -14
10 -12 8 -17 -8 -25 -13 -7 -22 -8 -26 -1 -3 5 2 10 11 10 10 0 14 3 11 7 -9
8 -57 -17 -57 -30 0 -5 7 -4 15 3 8 7 15 8 15 2 0 -5 -6 -15 -14 -21 -11 -10
-17 -8 -25 6 -6 10 -10 14 -10 8 0 -5 6 -19 14 -29 22 -29 18 -45 -4 -19 -15
18 -20 20 -25 8 -3 -8 -1 -17 4 -20 6 -4 10 -11 10 -17 0 -7 -6 -6 -15 2 -8 7
-15 11 -16 9 -7 -34 -3 -52 13 -57 10 -2 18 -9 18 -14 0 -5 -5 -6 -12 -2 -7 4
-8 3 -4 -4 5 -8 13 -9 25 -2 18 9 31 4 31 -12 0 -4 -3 -7 -7 -7 -31 5 -42 -26
-18 -48 4 -5 4 -2 0 6 -6 11 -4 13 7 8 9 -3 21 0 27 6 8 8 11 8 11 -1 0 -6 -8
-16 -17 -21 -10 -6 -13 -10 -8 -10 19 0 51 31 38 36 -15 6 -17 33 -3 33 5 0 9
-3 8 -7 -1 -5 4 -19 11 -33 8 -14 10 -22 6 -18 -10 9 -35 -10 -35 -26 0 -6 5
-3 11 6 5 9 16 15 24 12 8 -4 12 -11 8 -18 -4 -6 2 -4 12 4 17 13 18 13 13 -1
-5 -13 -2 -16 13 -12 10 3 19 10 19 15 0 5 4 7 10 3 5 -3 8 -11 6 -18 -1 -7
-1 -9 1 -5 3 4 15 -5 28 -20 21 -24 21 -28 6 -39 -14 -10 -13 -11 6 -6 26 6
28 14 11 31 -8 8 -8 15 2 27 7 8 17 15 22 15 6 0 5 -6 -2 -15 -9 -11 -9 -19 3
-35 12 -18 15 -18 20 -5 4 8 12 15 19 15 9 0 9 -3 0 -12 -7 -7 -12 -17 -12
-23 0 -5 7 -2 14 8 12 15 15 16 26 2 11 -14 14 -13 27 5 8 11 19 18 24 14 6
-3 3 -12 -8 -20 -10 -7 -13 -14 -7 -14 5 0 15 5 21 11 6 6 17 9 25 7 8 -3 2
-11 -17 -21 -16 -9 -25 -16 -19 -17 6 0 23 9 37 20 29 23 45 27 28 7 -8 -10
-7 -19 5 -33 15 -18 15 -18 5 2 -13 27 12 55 31 36 9 -9 8 -12 -5 -12 -9 0
-17 -5 -17 -10 0 -7 6 -7 19 0 28 14 34 13 27 -7 -6 -17 -5 -17 7 -1 8 10 17
15 21 11 4 -4 4 1 0 12 -7 18 -6 19 11 5 11 -9 16 -10 11 -2 -4 6 -3 12 1 12
5 0 15 -12 24 -26 14 -22 17 -24 22 -10 5 11 3 15 -4 10 -7 -4 -10 -1 -7 7 5
16 50 19 60 4 14 -18 8 -28 -8 -14 -13 10 -17 10 -25 -2 -6 -9 -4 -18 6 -25 8
-6 12 -14 8 -17 -3 -4 -1 -7 5 -7 17 0 15 20 -3 26 -8 4 -12 10 -9 16 3 5 14
2 24 -7 21 -19 40 -13 40 13 0 14 2 14 13 -2 12 -16 14 -16 26 -2 8 9 20 16
29 16 17 0 7 15 -11 15 -7 1 -11 5 -10 11 1 5 -7 10 -17 10 -10 0 -17 -3 -15
-6 2 -3 -5 -7 -16 -7 -10 -1 -19 2 -19 8 0 5 5 8 11 6 6 -1 14 4 16 11 7 20
-20 10 -35 -13 -8 -12 -11 -14 -9 -4 3 9 -1 16 -8 16 -7 0 -11 -7 -8 -16 4
-14 4 -14 -6 -1 -8 12 -11 12 -11 1 0 -10 -3 -11 -14 -2 -10 9 -16 9 -21 1 -5
-7 -18 -4 -41 10 -20 11 -33 16 -30 11 7 -11 -13 -9 -31 2 -12 7 -17 3 -15
-14 1 -3 -5 -6 -13 -6 -7 0 -12 8 -10 17 2 9 -2 17 -9 17 -7 0 -13 -6 -13 -13
0 -7 4 -11 9 -8 4 3 5 -1 2 -9 -4 -12 -10 -10 -29 6 -29 26 -96 32 -88 8 4
-14 3 -14 -5 -1 -6 8 -8 18 -6 22 3 4 0 8 -6 8 -7 0 -10 -7 -7 -14 4 -9 1 -13
-7 -10 -7 3 -12 19 -11 37 1 18 -5 43 -13 55 -7 13 -11 26 -8 29 3 3 8 -2 12
-11 3 -9 10 -13 15 -10 5 3 6 -3 2 -13 -3 -10 -2 -14 2 -10 5 4 14 -1 19 -12
11 -19 12 -18 41 6 21 18 24 23 10 19 -16 -6 -18 -5 -7 5 8 9 15 10 23 2 7 -7
2 -17 -20 -33 -17 -12 -29 -26 -25 -31 3 -6 11 -3 18 7 7 9 28 18 47 20 27 3
30 1 17 -7 -10 -5 -18 -15 -18 -21 0 -7 5 -6 15 2 12 10 18 10 30 0 8 -6 19
-9 24 -6 5 4 14 -2 20 -11 8 -15 10 -15 11 -3 0 9 -6 22 -12 29 -11 11 -9 11
9 0 11 -7 19 -18 17 -24 -3 -6 5 -11 17 -12 16 -2 18 1 9 12 -8 10 -7 13 7 11
9 0 22 10 29 23 7 14 23 26 36 28 17 2 19 1 8 -6 -8 -5 -18 -7 -22 -5 -10 7
-10 -17 0 -34 5 -7 16 -10 25 -6 12 4 17 1 17 -12 0 -14 3 -15 12 -6 15 15 -8
43 -29 35 -11 -4 -14 -2 -9 5 3 6 15 10 26 9 10 -1 16 -5 14 -9 -3 -5 2 -11
11 -14 11 -5 13 -10 5 -19 -8 -10 -4 -13 17 -12 16 0 38 -3 50 -7 19 -6 22 -4
17 11 -6 16 -5 15 9 -2 14 -17 16 -17 17 -4 0 9 -10 24 -22 32 -13 9 -19 16
-15 16 4 1 26 -17 48 -40 39 -40 41 -40 64 -25 14 9 25 12 25 7 0 -5 -4 -11
-9 -13 -20 -7 -16 -43 6 -53 13 -5 22 -16 20 -24 -1 -8 3 -16 10 -18 8 -3 10
6 8 28 l-4 31 19 -22 c23 -27 25 -31 7 -24 -8 3 -13 -4 -14 -17 -2 -16 1 -18
12 -9 10 9 15 6 20 -10 3 -11 11 -18 16 -15 5 4 9 1 9 -5 0 -7 -8 -9 -22 -4
-23 7 -23 6 -4 -15 19 -20 43 -30 32 -12 -3 5 1 11 9 15 8 3 17 0 21 -6 4 -6
3 -8 -4 -4 -6 3 -13 -3 -17 -14 -5 -17 -10 -19 -21 -9 -8 7 -14 7 -14 1 0 -5
6 -15 14 -21 12 -10 17 -8 26 9 11 21 32 24 31 5 0 -6 7 -14 15 -18 16 -9 19
-27 3 -27 -5 0 -8 4 -5 9 3 5 -1 12 -10 15 -8 3 -12 10 -9 16 3 5 2 10 -3 10
-11 0 -25 -30 -17 -38 3 -3 5 -2 5 2 0 5 9 -2 20 -15 20 -24 20 -24 35 -5 12
16 15 17 15 4 0 -21 -29 -31 -46 -17 -17 14 -18 5 -2 -20 12 -19 12 -19 40 0
15 11 28 16 28 11 0 -6 -6 -13 -12 -15 -8 -4 -7 -6 4 -6 9 -1 19 4 21 9 3 6 4
5 3 -2 -2 -7 -14 -12 -28 -11 -17 1 -24 -4 -25 -18 -1 -10 2 -21 8 -24 5 -4 9
1 9 9 0 9 4 16 10 16 5 0 9 -5 7 -11 -1 -6 4 -14 12 -17 8 -2 11 0 8 5 -3 5 3
22 14 39 10 16 19 24 19 19 0 -6 -5 -16 -10 -21 -16 -16 -21 -56 -7 -51 7 2
11 11 9 20 -1 8 2 18 6 21 5 3 9 -6 10 -19 0 -14 -5 -25 -10 -25 -5 0 -4 -9 2
-20 6 -11 16 -20 22 -20 7 0 7 4 0 13 -8 9 -8 17 0 27 8 12 9 12 4 -2 -3 -10
-1 -20 3 -23 11 -6 23 23 15 36 -3 5 6 4 20 -3 25 -11 30 -19 27 -46 -1 -6 3
-12 9 -12 5 0 10 5 10 10 0 6 5 10 11 10 8 0 8 -4 0 -14 -10 -12 -6 -18 18
-32 17 -10 31 -25 31 -33 0 -8 3 -11 7 -8 3 4 13 1 21 -6 13 -10 15 -9 9 6 -4
10 -7 21 -7 23 0 3 -6 2 -13 -2 -8 -5 -7 -2 2 9 11 14 17 15 30 5 26 -20 27
-22 8 -15 -13 5 -17 3 -14 -5 2 -7 8 -12 13 -11 5 1 16 3 24 5 8 2 14 -2 15
-9 0 -7 6 -18 14 -25 12 -11 13 -10 7 6 -5 15 -4 17 7 8 8 -7 17 -9 21 -5 4 4
4 -1 0 -12 -7 -17 -5 -18 8 -8 8 7 18 9 22 5 4 -4 12 -7 18 -7 6 0 17 -9 24
-20 12 -18 11 -21 -5 -21 -11 0 -17 4 -15 8 2 4 -5 5 -16 3 -11 -2 -18 0 -15
5 3 5 -4 7 -15 5 -13 -3 -18 0 -14 7 5 7 2 8 -6 3 -8 -5 -11 -4 -7 2 4 6 -9 9
-33 8 -36 -2 -38 0 -29 17 9 17 8 18 -9 9 -11 -6 -22 -7 -26 -4 -3 3 -6 0 -6
-8 -1 -10 -4 -9 -15 5 -8 11 -19 15 -27 10 -11 -6 -11 -5 0 8 10 13 10 18 1
24 -7 4 -9 3 -5 -4 3 -6 1 -14 -5 -18 -8 -4 -9 -3 -5 5 4 6 4 11 -1 10 -4 -1
-10 0 -13 1 -14 5 -47 12 -67 13 -12 0 -20 5 -17 9 3 4 -2 5 -10 2 -9 -3 -19
3 -26 16 -6 11 -16 17 -22 14 -7 -4 -8 -3 -4 4 4 7 -1 9 -15 7 -21 -4 -21 -4
-4 15 20 22 14 25 -17 9 -16 -9 -19 -8 -13 2 6 8 4 10 -5 4 -9 -6 -11 -4 -5 6
7 12 6 12 -7 1 -13 -10 -17 -10 -21 2 -4 11 -1 13 11 9 13 -4 12 -2 -3 10 -11
8 -23 13 -27 11 -5 -3 -8 0 -8 5 0 6 5 11 10 11 6 0 10 5 10 11 0 8 -6 7 -17
-2 -14 -12 -16 -12 -8 0 6 10 4 12 -6 5 -10 -5 -8 0 4 19 9 15 13 27 8 27 -12
0 -32 -25 -26 -32 3 -3 -2 -5 -12 -5 -10 0 -27 -1 -38 -2 -18 -2 -18 -3 4 -12
15 -6 21 -14 17 -25 -3 -8 1 -22 9 -31 14 -14 15 -12 10 14 -3 21 -1 30 9 30
15 0 16 -43 3 -65 -5 -7 -4 -12 2 -12 6 0 11 5 11 11 0 5 5 7 12 3 7 -5 5 -11
-7 -21 -11 -7 -14 -13 -8 -13 7 0 14 4 18 9 3 6 14 9 24 8 23 -1 25 -37 2 -37
-8 0 -12 -3 -8 -6 3 -3 15 -3 27 1 15 5 19 12 15 25 -3 10 0 22 7 26 7 4 10 3
5 -1 -4 -5 0 -16 8 -25 14 -16 14 -18 0 -23 -8 -4 -15 -12 -15 -19 0 -9 3 -9
10 2 8 12 10 12 16 -3 7 -18 39 -23 49 -7 3 6 11 10 17 10 7 0 5 -7 -4 -17
-22 -27 -30 -53 -13 -47 8 3 12 11 9 18 -6 17 22 41 31 26 3 -5 1 -10 -4 -10
-6 0 -11 -5 -11 -11 0 -8 4 -8 14 0 12 10 17 8 26 -8 6 -12 7 -21 1 -21 -5 0
-12 6 -14 13 -4 9 -6 9 -6 0 -2 -24 21 -25 46 -2 16 15 24 18 22 9 -3 -8 5
-25 18 -37 13 -12 23 -18 23 -13 0 6 4 10 10 10 5 0 8 -6 6 -12 -1 -7 -1 -10
1 -6 3 4 10 2 18 -5 7 -7 10 -16 7 -22 -3 -5 2 -4 11 4 10 7 17 19 16 25 -3
23 1 39 8 32 11 -11 13 -40 2 -52 -7 -8 -6 -15 2 -20 7 -4 9 -3 5 4 -3 6 -2
13 4 17 5 3 10 1 10 -4 0 -6 5 -11 11 -11 5 0 8 4 5 8 -2 4 4 14 15 20 17 11
20 10 17 -5 -2 -10 -7 -21 -13 -25 -5 -4 -6 -10 -2 -15 8 -8 28 17 22 27 -2 3
5 12 16 18 17 11 20 10 17 -5 -2 -10 -9 -23 -16 -28 -10 -8 -9 -11 6 -11 14 0
19 6 17 17 -4 22 21 32 43 19 14 -9 13 -10 -6 -5 -19 6 -23 3 -21 -12 2 -10 0
-24 -5 -31 -7 -11 -4 -11 13 0 12 7 17 14 11 16 -5 2 -10 8 -10 13 0 5 13 3
30 -6 31 -16 42 -32 15 -21 -8 3 -15 1 -15 -4 0 -14 27 -12 36 2 4 6 2 14 -4
16 -8 2 -9 9 -2 22 7 13 5 21 -5 30 -9 7 -18 10 -22 6 -3 -3 -1 -6 6 -6 7 0 9
-5 5 -11 -4 -8 -9 -7 -15 2 -15 25 -10 30 24 24 17 -4 40 -7 49 -8 9 -1 14 -5
12 -9 -3 -4 -1 -8 5 -8 5 0 13 5 16 10 4 6 13 7 23 2 9 -5 24 -8 32 -7 19 2
40 -14 40 -29 0 -6 -5 -4 -10 4 -6 10 -10 11 -10 3 0 -7 -5 -13 -11 -13 -5 0
-8 4 -5 8 3 5 -1 9 -9 9 -8 0 -15 -4 -15 -9 0 -5 -5 -6 -11 -2 -8 4 -7 9 2 15
10 6 7 8 -8 6 -16 -1 -19 -5 -12 -13 6 -8 5 -14 -6 -18 -13 -4 -14 -10 -5 -26
6 -11 16 -20 23 -20 7 0 6 4 -3 10 -8 5 -13 10 -10 11 3 0 16 2 29 5 20 4 22
2 11 -11 -7 -9 -10 -18 -7 -22 4 -3 9 2 13 11 6 16 8 16 25 0 11 -10 19 -12
19 -6 0 7 5 12 11 12 6 0 9 -6 6 -13 -3 -8 -1 -20 5 -28 8 -11 9 -11 5 3 -3 9
1 22 8 28 12 10 17 8 24 -11 10 -24 10 -24 8 3 -1 15 -4 25 -8 22 -9 -5 -22
24 -23 50 0 11 6 21 14 24 12 3 13 2 1 -6 -11 -8 -11 -10 0 -15 12 -5 12 -7 0
-15 -11 -8 -9 -11 10 -18 13 -4 32 -7 42 -5 9 1 17 -3 17 -8 0 -6 -3 -10 -7
-10 -20 3 -33 -2 -33 -12 0 -8 6 -7 16 2 15 12 16 11 10 -9 -5 -14 -3 -22 4
-22 6 0 8 4 5 10 -3 5 1 10 10 10 9 0 13 -5 9 -11 -4 -8 0 -8 15 0 11 7 21 9
21 5 0 -3 11 1 25 10 24 16 25 16 22 -6 -2 -12 -10 -24 -17 -26 -8 -3 -10 0
-5 8 6 9 4 11 -5 5 -10 -6 -7 -12 11 -26 13 -10 26 -15 29 -13 2 3 -2 9 -9 13
-9 6 -10 11 -2 15 6 4 8 12 5 18 -5 7 -1 9 8 5 9 -3 23 2 33 13 18 20 4 23
-24 6 -9 -6 -12 -5 -8 0 3 5 -9 10 -26 11 -39 1 -69 8 -96 22 -26 14 -34 14
-25 -1 4 -6 3 -8 -3 -5 -5 3 -9 16 -8 28 2 23 29 34 49 21 6 -3 17 -7 24 -8
19 -3 27 -13 18 -21 -4 -4 -11 -1 -16 7 -6 8 -10 10 -10 5 0 -13 20 -35 32
-35 4 0 7 3 7 8 -3 18 2 35 8 29 3 -4 15 5 26 20 13 19 17 21 12 8 -11 -33
-11 -37 4 -43 8 -2 11 0 8 5 -4 6 1 19 9 29 9 10 13 13 9 7 -8 -17 10 -50 19
-34 4 6 2 11 -4 11 -6 0 -8 5 -4 11 4 8 10 6 17 -6 11 -21 -7 -36 -32 -27 -14
5 -14 4 -2 -11 10 -13 17 -14 27 -6 7 6 18 8 23 5 6 -4 15 3 21 14 7 12 18 19
26 16 7 -3 18 3 23 12 6 9 11 12 11 7 0 -6 -5 -16 -12 -23 -9 -9 -9 -12 -1
-12 7 0 15 5 18 10 3 6 12 10 18 10 7 0 4 -5 -5 -11 -27 -15 -21 -29 6 -16 14
7 24 16 23 22 -1 5 9 11 23 12 21 2 22 1 5 -5 -11 -4 -21 -14 -23 -23 -3 -23
30 -19 44 5 13 23 7 49 -9 39 -6 -3 -7 -1 -3 6 5 8 14 5 31 -11 13 -13 25 -21
27 -18 2 3 16 -3 30 -12 26 -17 27 -17 49 10 12 15 19 19 16 10 -8 -22 6 -23
23 -3 10 12 10 15 0 15 -8 0 -11 3 -8 6 4 3 16 1 27 -6 17 -9 19 -15 11 -30
-15 -27 -12 -32 9 -18 11 7 17 16 15 20 -3 4 0 8 5 8 18 0 12 -19 -10 -30 -12
-7 -18 -18 -15 -26 4 -10 2 -13 -7 -8 -9 5 -9 4 1 -7 6 -7 12 -17 12 -22 0 -5
-8 1 -18 13 l-19 23 -17 -24 -17 -24 5 28 c3 16 1 25 -5 22 -13 -9 -11 -29 7
-61 11 -22 15 -24 13 -9 -2 33 1 46 10 41 9 -6 7 -48 -3 -64 -7 -11 31 -9 41
3 5 4 3 5 -4 1 -21 -12 -23 11 -2 30 21 19 21 19 18 0 -3 -12 2 -20 14 -22 15
-2 16 0 6 12 -19 23 -5 26 19 4 22 -21 29 -16 13 8 -4 8 -12 13 -17 12 -5 -1
-10 2 -11 7 -2 5 6 9 17 9 11 0 23 -8 26 -18 7 -23 15 -23 48 3 14 11 26 16
26 10 0 -5 -10 -17 -21 -25 -22 -15 -22 -15 -1 -13 11 0 19 4 16 8 -2 4 0 10
6 14 5 3 10 1 10 -5 0 -6 5 -8 11 -4 7 4 9 0 5 -14 -4 -11 -2 -23 3 -27 7 -4
8 1 4 11 -5 12 -3 15 6 9 10 -6 11 -3 3 12 -6 10 -8 23 -4 29 13 17 31 14 37
-6 4 -11 11 -17 17 -14 8 5 9 1 5 -10 -4 -9 -3 -15 2 -11 5 3 12 -1 14 -7 4
-10 6 -10 6 0 1 6 -8 21 -19 32 -25 25 -25 25 0 27 11 1 19 -1 19 -5 -3 -21 2
-32 12 -26 8 4 7 9 -2 15 -16 10 -16 9 29 14 18 2 30 -1 27 -6 -4 -5 -1 -9 4
-9 6 0 11 3 11 8 0 16 -16 29 -32 27 -11 -2 -15 2 -11 13 4 15 3 15 -6 2 -6
-8 -11 -11 -11 -7 0 4 -8 3 -19 -2 -10 -6 -21 -7 -25 -4 -11 12 -36 12 -30 1
4 -7 2 -8 -5 -4 -6 4 -9 12 -6 17 4 5 1 9 -5 9 -7 0 -10 -6 -7 -13 3 -9 -4
-13 -23 -13 -24 0 -27 2 -20 17 11 20 -13 34 -37 21 -18 -10 -19 -22 -3 -32 8
-5 7 -9 -5 -13 -10 -5 -14 -3 -9 5 5 7 3 8 -7 3 -12 -8 -12 -6 0 8 9 11 10 17
2 17 -6 0 -11 -4 -11 -10 0 -5 -3 -9 -7 -9 -5 1 -15 1 -23 0 -13 -1 -13 -2 0
-12 13 -9 13 -10 0 -7 -13 4 -15 15 -11 62 1 15 48 19 57 5 3 -5 10 -9 16 -9
7 0 6 5 -1 14 -10 12 -8 17 9 26 12 6 24 9 27 7 2 -3 -5 -8 -16 -12 -12 -3
-19 -10 -16 -15 3 -5 13 -6 22 -3 12 5 14 3 8 -7 -5 -8 -3 -11 6 -8 8 3 13 14
11 24 -2 15 -1 16 7 4 7 -10 6 -19 -2 -29 -10 -12 -9 -14 7 -8 10 4 24 3 31
-3 10 -8 15 -6 20 10 6 18 8 18 21 5 9 -8 21 -15 27 -15 7 0 3 7 -7 15 -11 8
-15 15 -9 15 7 0 15 -4 18 -10 9 -15 25 -12 25 5 0 8 4 15 10 15 5 0 9 -5 7
-11 -1 -6 4 -14 12 -17 10 -3 11 0 5 9 -7 12 -5 12 9 0 9 -7 17 -10 17 -6 0 4
6 2 13 -4 8 -6 17 -8 20 -5 3 4 14 3 24 -1 10 -5 30 -9 46 -10 15 -2 30 -4 35
-5 4 -1 15 -2 25 -1 9 1 17 -3 17 -8 0 -6 -6 -10 -12 -8 -7 1 -12 -6 -11 -16
1 -12 -4 -17 -14 -13 -8 3 -24 -1 -36 -9 -12 -8 -17 -15 -11 -15 6 0 14 3 18
8 4 4 18 7 29 7 15 0 21 5 19 16 -1 9 5 16 13 16 9 0 14 -6 11 -13 -3 -8 0
-11 10 -7 9 3 14 0 12 -7 -2 -7 3 -14 10 -16 7 -1 8 0 2 3 -5 2 -8 8 -5 13 3
4 -2 13 -10 20 -8 7 -15 17 -15 22 0 6 7 5 15 -2 8 -7 15 -9 15 -4 0 5 11 9
25 9 14 0 25 -3 25 -7 0 -5 -5 -8 -12 -8 -6 0 -8 -3 -4 -7 4 -5 13 -1 19 7 7
9 31 16 57 18 59 3 83 7 96 14 6 4 21 9 35 12 13 2 37 9 52 15 38 15 46 13 23
-4 -11 -8 -16 -15 -10 -15 11 1 40 23 42 33 3 12 17 3 16 -10 -1 -6 5 -9 14
-6 10 4 13 2 8 -5 -4 -7 -2 -12 3 -12 16 0 13 16 -4 30 -18 15 -20 30 -3 30 6
0 19 7 29 16 13 12 19 12 25 3 5 -8 3 -10 -7 -4 -11 6 -12 5 -1 -6 17 -18 15
-25 -8 -26 -13 -1 -18 2 -14 9 4 7 2 8 -5 4 -14 -9 -8 -20 29 -46 23 -16 28
-17 24 -6 -3 9 -12 16 -20 16 -8 0 -14 5 -14 12 0 6 3 8 7 5 3 -4 15 1 26 10
19 17 19 17 13 -4 -4 -12 -2 -24 3 -28 7 -4 8 0 4 11 -5 14 -3 15 18 5 21 -11
22 -11 7 2 -10 8 -18 20 -18 26 0 7 -7 10 -18 7 -29 -9 -23 25 7 49 14 11 28
20 32 20 4 0 16 11 28 25 11 14 20 21 21 17 0 -4 6 -2 14 5 8 7 12 16 10 20
-2 3 6 4 18 0 21 -5 22 -4 9 11 -12 15 -12 17 1 12 8 -3 21 2 29 11 13 16 12
17 -6 10 -15 -5 -17 -4 -8 5 13 13 37 3 28 -12 -4 -5 -3 -9 2 -9 12 0 35 16
34 24 -3 22 1 25 19 14 11 -7 18 -19 15 -26 -3 -7 -1 -11 3 -8 5 3 9 -1 9 -9
0 -8 -5 -12 -11 -9 -6 3 -2 -2 8 -10 11 -9 15 -16 10 -16 -6 0 -15 5 -22 12
-7 7 -12 8 -12 3 0 -4 -9 0 -20 10 -18 16 -20 16 -20 2 0 -10 4 -17 9 -17 10
0 9 -26 -2 -36 -4 -4 -7 4 -7 17 0 18 -2 21 -9 9 -6 -8 -8 -17 -6 -20 2 -4 -2
-7 -10 -7 -8 0 -11 5 -8 10 3 6 1 7 -6 3 -6 -4 -9 -12 -6 -17 4 -5 1 -9 -4 -9
-6 0 -11 5 -11 11 0 5 -5 7 -11 3 -8 -4 -7 -9 2 -16 11 -7 10 -8 -4 -4 -12 4
-16 2 -11 -6 5 -7 3 -8 -6 -3 -9 6 -11 4 -5 -5 5 -8 4 -11 -2 -7 -12 8 -36
-17 -26 -26 3 -4 1 -7 -5 -7 -7 0 -12 4 -12 8 0 5 -6 9 -13 9 -9 0 -13 -10
-11 -25 3 -32 16 -44 34 -31 13 9 12 10 -2 5 -10 -3 -18 -1 -18 4 0 16 19 21
39 11 17 -9 19 -8 16 14 -2 25 9 33 20 15 4 -7 13 -7 26 0 11 7 19 7 19 1 0
-5 -5 -11 -10 -13 -6 -2 0 -9 12 -17 20 -12 22 -12 13 0 -6 8 -10 21 -9 29 1
8 2 21 3 28 0 7 5 10 11 7 5 -3 7 0 4 8 -3 8 2 14 11 14 10 0 14 -6 10 -16 -5
-13 -4 -13 12 1 10 8 28 23 40 33 12 11 19 24 16 34 -4 9 -3 13 2 9 4 -4 14
-3 22 3 30 26 11 -12 -27 -52 -45 -47 -47 -54 -24 -63 13 -5 14 -4 6 7 -9 10
-7 17 8 29 10 9 21 13 25 10 4 -4 5 -2 4 3 -2 6 8 27 20 48 23 37 38 50 27 22
-5 -15 30 -42 42 -31 3 3 0 6 -7 6 -7 0 -9 4 -6 10 4 6 -1 7 -12 3 -16 -6 -16
-5 -4 10 9 11 10 17 2 17 -6 0 -11 4 -11 9 0 5 8 8 18 7 11 0 17 6 17 18 0 11
6 21 13 24 6 2 10 8 6 13 -3 5 2 12 11 15 14 6 14 8 -2 21 -17 14 -17 14 4 10
13 -3 31 3 44 13 l21 19 -24 -3 c-13 -1 -29 -6 -36 -10 -7 -4 -12 -5 -12 -2 0
3 -10 -5 -23 -17 -13 -12 -21 -26 -19 -31 3 -4 8 -3 12 4 5 9 9 9 14 1 6 -10
-6 -15 -19 -8 -2 1 -12 -8 -21 -21 -13 -19 -18 -21 -32 -10 -13 11 -15 11 -10
-2 6 -17 -10 -44 -30 -47 -6 -2 -12 2 -12 7 0 6 7 10 16 10 8 0 12 5 9 10 -4
6 -10 8 -15 5 -14 -9 -40 6 -40 23 0 13 2 13 14 -3 12 -17 15 -17 36 -2 18 12
27 14 37 5 8 -6 13 -7 13 0 0 23 -26 32 -49 16 -12 -9 -25 -13 -28 -10 -3 3 2
8 11 12 13 5 14 9 4 23 -10 13 -10 14 2 4 14 -13 39 -19 27 -6 -4 3 2 13 13
20 11 8 18 19 15 24 -9 13 -26 11 -22 -2 1 -6 -5 -14 -13 -16 -13 -4 -13 -3 0
6 8 6 11 11 6 11 -6 0 -5 5 1 11 8 8 18 6 36 -6 17 -10 27 -13 32 -6 3 6 2 11
-2 11 -5 0 -18 7 -29 15 -19 15 -19 15 1 9 16 -6 18 -4 8 6 -16 18 15 44 34
28 9 -7 12 -3 11 14 -2 26 -15 48 -30 48 -6 0 -5 -7 3 -16 20 -24 -10 -39 -32
-16 -9 9 -14 19 -12 22 3 3 10 -3 17 -12 7 -10 16 -15 19 -12 3 4 -6 23 -21
42 -15 20 -21 32 -14 28 9 -6 11 -1 8 18 -3 18 -1 24 6 20 7 -5 9 -2 5 8 -3 9
-3 19 0 22 4 3 8 21 10 38 2 18 11 39 20 46 15 11 15 12 -3 12 -10 0 -15 4 -9
8 6 4 11 18 13 32 1 14 7 59 12 100 4 41 7 140 5 220 -3 135 -6 165 -21 229
l-5 24 28 -24 c16 -13 89 -76 163 -140 296 -253 854 -674 933 -702 9 -4 16
-12 15 -19 -2 -7 5 -12 15 -10 9 2 17 -3 17 -10 0 -8 9 -14 21 -15 27 -2 51
-22 42 -36 -4 -6 0 -8 10 -4 9 3 16 3 16 -1 -3 -18 2 -26 9 -15 5 8 12 7 27
-4 14 -11 16 -17 7 -20 -6 -3 -10 -9 -7 -13 3 -5 12 -7 20 -4 8 4 12 11 9 16
-4 6 3 5 14 -1 13 -7 19 -17 16 -26 -4 -8 -1 -15 5 -15 6 0 11 6 11 13 0 9 2
9 9 -1 4 -8 11 -13 15 -12 10 3 76 -33 76 -41 0 -3 -10 -6 -22 -5 -13 1 -22 7
-21 14 2 7 -2 12 -8 12 -6 0 -8 -9 -4 -20 5 -15 3 -18 -9 -14 -12 5 -13 11 -6
24 8 16 7 18 -10 15 -11 -2 -18 -1 -16 3 2 4 -4 8 -15 8 -19 0 -19 -1 -2 -14
15 -11 16 -14 3 -22 -19 -12 -33 -13 -26 -1 7 11 -3 41 -13 41 -14 0 -9 -44 7
-58 14 -11 14 -13 1 -9 -9 3 -16 -1 -16 -8 0 -10 5 -11 19 -4 10 5 18 14 18
20 0 6 5 7 10 4 8 -5 7 -12 -2 -23 -11 -13 -11 -14 2 -7 8 5 22 8 32 7 9 -2
19 2 23 8 3 5 11 10 17 10 6 0 3 -9 -7 -20 -10 -11 -13 -20 -7 -20 7 0 12 5
12 11 0 5 5 7 10 4 6 -4 10 -3 9 2 -3 20 2 34 11 28 6 -4 8 -10 6 -14 -10 -16
11 -33 29 -24 12 7 14 13 6 17 -6 4 -11 2 -11 -4 0 -6 -4 -9 -9 -6 -7 5 -8 24
-2 43 2 6 44 -34 53 -50 8 -16 7 -18 -10 -13 -23 8 -39 -9 -21 -20 8 -4 9 -3
5 4 -9 15 -1 15 24 2 16 -9 18 -7 15 10 -2 11 -7 25 -10 30 -10 17 7 11 22 -7
8 -10 12 -12 8 -6 -4 8 6 6 24 -4 16 -10 27 -21 25 -25 -3 -4 2 -5 10 -2 8 3
25 -1 38 -10 29 -20 34 -20 41 2 3 9 23 58 45 107 56 127 84 250 84 359 0 49
-5 93 -10 98 -5 5 -62 20 -128 33 -197 41 -344 92 -545 191 -312 154 -546 321
-973 696 -23 20 -8 15 59 -22 248 -137 530 -211 779 -205 231 6 399 68 527
196 200 199 228 539 79 966 -22 65 -43 127 -46 138 -3 13 15 57 50 120 98 176
145 344 141 501 -14 444 -464 757 -1090 756 -82 0 -169 -3 -192 -6 -24 -3 -61
-8 -83 -11 -256 -33 -487 -133 -790 -342 -134 -93 -353 -284 -534 -467 -72
-72 -110 -106 -85 -77 86 106 229 259 479 510 321 323 429 452 528 629 79 140
149 348 167 497 4 33 9 71 11 85 6 36 5 265 0 281 -3 8 -8 32 -11 54 -20 138
-81 276 -165 368 -116 128 -255 187 -450 192 -63 1 -126 1 -140 -2z m-2570
-4793 c10 -6 11 -10 3 -10 -7 0 -13 -7 -13 -15 0 -8 -4 -15 -9 -15 -5 0 -8 11
-7 25 1 28 4 29 26 15z m162 -13 c-7 -8 -10 -16 -7 -18 2 -3 -7 -5 -22 -5
l-25 0 28 23 c30 23 45 23 26 0z m45 -1 c-3 -7 -1 -18 4 -23 5 -5 1 -9 -10 -9
-16 0 -17 4 -8 23 11 25 23 32 14 9z m-360 -3 c-4 -3 -2 -12 5 -20 9 -11 14
-11 28 2 30 27 67 28 82 3 7 -13 12 -27 13 -32 0 -5 5 -11 12 -13 7 -3 11 3 8
15 -4 25 10 49 20 33 5 -9 11 -9 22 1 24 20 49 19 49 -1 0 -13 -7 -17 -26 -16
-36 2 -50 -4 -43 -22 5 -12 7 -12 14 -2 4 8 11 10 15 6 4 -4 -2 -14 -14 -23
-12 -8 -20 -20 -17 -25 4 -5 1 -9 -4 -9 -14 0 -14 13 1 28 8 8 8 12 1 12 -15
0 -34 -25 -31 -40 2 -7 -3 -14 -10 -15 -7 -2 -8 -1 -3 1 6 3 7 12 4 20 -5 13
-8 13 -15 2 -8 -10 -9 -9 -5 4 3 9 -1 24 -9 35 -13 17 -14 16 -11 -7 1 -17 -3
-24 -12 -22 -7 2 -22 -5 -32 -14 -11 -9 -19 -14 -19 -9 0 4 8 14 17 21 10 7
15 15 11 19 -3 4 -21 -7 -39 -24 l-32 -31 -28 32 c-16 18 -28 28 -29 23 0 -6
5 -16 12 -23 9 -9 9 -15 -1 -24 -11 -11 -13 -10 -8 4 4 11 -3 22 -18 32 -31
20 -41 20 -25 1 7 -9 10 -18 6 -22 -3 -3 -6 -1 -6 6 0 7 -18 -2 -40 -19 -23
-18 -43 -30 -46 -27 -3 2 11 15 31 27 19 12 33 25 30 30 -8 13 26 42 41 36 22
-8 16 2 -7 15 -15 8 -19 8 -15 0 4 -6 1 -11 -7 -11 -19 0 -27 9 -20 26 4 10
10 11 24 3 11 -5 24 -7 29 -4 5 3 12 0 15 -5 5 -8 13 -6 26 6 10 9 19 12 19 6
0 -6 -4 -12 -8 -14 -4 -1 1 -12 12 -22 17 -17 19 -17 13 -2 -5 12 -3 15 6 10
7 -5 6 -1 -2 10 -13 15 -13 19 0 27 17 10 25 12 16 2z m478 -31 c-2 -3 -16 -6
-30 -8 -20 -2 -24 1 -16 10 6 7 7 16 3 20 -4 4 5 2 21 -5 15 -7 25 -14 22 -17z
m-71 10 c3 -5 -1 -9 -9 -9 -8 0 -12 4 -9 9 3 4 7 8 9 8 2 0 6 -4 9 -8z m133
-27 c0 -17 0 -17 -22 -9 -13 5 -14 8 -3 15 19 12 25 11 25 -6z m-893 -33 c3
-5 -1 -9 -9 -9 -8 0 -12 4 -9 9 3 4 7 8 9 8 2 0 6 -4 9 -8z m448 -37 c-2 -5 4
-12 14 -15 16 -6 16 -7 -3 -12 -17 -5 -21 -2 -18 13 3 14 -2 19 -16 19 -11 0
-17 -5 -14 -10 3 -6 -1 -13 -9 -16 -9 -3 -13 -11 -9 -17 4 -6 1 -7 -7 -2 -10
6 -9 11 5 22 11 7 15 13 11 13 -4 0 -4 5 -1 11 8 13 51 8 47 -6z m-535 -2 c-4
-3 -2 -12 4 -20 6 -7 9 -14 5 -14 -3 -1 -9 -2 -13 -3 -5 -1 -13 -5 -20 -9 -23
-14 -26 16 -3 35 21 17 41 26 27 11z m325 0 c-6 -2 -9 -10 -6 -15 4 -7 2 -8
-4 -4 -18 11 -14 26 6 25 10 0 12 -3 4 -6z m314 -25 c-9 -12 -16 -19 -16 -15
0 11 24 47 28 42 2 -2 -3 -14 -12 -27z m45 15 c13 -16 12 -17 -3 -4 -10 7 -18
15 -18 17 0 8 8 3 21 -13z m91 3 c7 4 8 2 4 -5 -9 -13 -26 -5 -25 12 0 9 2 8
6 -1 2 -6 10 -9 15 -6z m-552 -13 c0 -3 -7 -3 -15 0 -8 4 -17 2 -20 -3 -3 -4
0 -10 7 -12 8 -3 8 -9 -1 -24 -10 -14 -11 -15 -7 -2 8 28 -10 30 -23 2 -7 -15
-16 -22 -23 -18 -8 5 -9 2 -5 -10 4 -9 3 -15 -2 -11 -5 3 -11 0 -13 -7 -3 -7
-7 -5 -11 6 -4 9 -3 15 2 12 5 -3 12 1 15 10 3 9 11 12 18 8 8 -5 9 -2 4 12
-4 10 -4 15 0 12 4 -4 15 4 26 17 11 14 25 22 33 18 8 -3 15 -7 15 -10z m70
13 c0 -2 -8 -10 -17 -17 -16 -13 -17 -12 -4 4 13 16 21 21 21 13z m90 -21 c0
-2 -5 -7 -12 -11 -7 -5 -8 -3 -3 6 5 9 1 11 -16 6 -13 -3 -18 -3 -11 0 6 3 9
10 6 16 -4 6 2 5 15 -1 11 -7 21 -14 21 -16z m227 19 c-3 -3 -12 -4 -19 -1 -8
3 -5 6 6 6 11 1 17 -2 13 -5z m213 -6 c0 -6 -3 -8 -7 -5 -3 4 -13 1 -22 -6
-14 -11 -14 -10 -2 6 15 20 31 22 31 5z m158 -4 c-2 -8 -7 -14 -12 -14 -5 1
-13 -4 -18 -12 -8 -10 -9 -10 -5 2 2 8 10 14 17 12 8 -2 10 3 7 13 -4 8 -2 15
4 15 6 0 9 -7 7 -16z m-538 -4 c8 -5 11 -10 5 -10 -5 0 -17 5 -25 10 -8 5 -10
10 -5 10 6 0 17 -5 25 -10z m-134 -12 c4 -7 3 -8 -4 -4 -7 4 -12 2 -12 -5 0
-7 -3 -10 -6 -6 -6 5 3 27 11 27 2 0 7 -5 11 -12z m348 0 c-5 -8 -2 -9 11 -4
15 5 16 4 5 -9 -10 -12 -15 -13 -21 -3 -7 12 -3 28 7 28 3 0 2 -5 -2 -12z
m226 2 c0 -5 -4 -10 -10 -10 -5 0 -10 5 -10 10 0 6 5 10 10 10 6 0 10 -4 10
-10z m116 -6 c-4 -9 -2 -22 4 -29 7 -8 5 -12 -5 -12 -8 0 -11 5 -8 10 4 6 -1
8 -11 4 -15 -6 -15 -5 1 18 21 28 28 32 19 9z m-769 -16 c-3 -8 -6 -5 -6 6 -1
11 2 17 5 13 3 -3 4 -12 1 -19z m516 9 c3 -8 -3 -13 -18 -13 -13 0 -21 4 -19
8 3 5 10 6 15 3 5 -4 9 -1 9 4 0 15 7 14 13 -2z m38 -1 c14 8 11 -2 -4 -14
-10 -8 -13 -6 -14 11 0 12 1 16 4 9 3 -6 9 -10 14 -6z m61 0 c7 4 8 2 4 -4
-11 -18 -26 -14 -25 6 0 10 3 12 6 4 2 -6 10 -9 15 -6z m75 7 c-4 -3 1 -12 11
-20 16 -12 16 -13 -2 -6 -14 5 -17 3 -11 -7 5 -9 4 -11 -4 -6 -6 4 -8 12 -5
18 5 8 1 9 -12 5 -18 -7 -18 -7 0 8 20 15 35 21 23 8z m-961 -26 c7 2 10 -8 9
-24 -1 -15 3 -37 8 -48 l10 -20 -23 20 c-12 11 -25 19 -29 19 -16 -3 -36 13
-38 31 -1 18 1 17 21 -6 14 -17 28 -24 35 -19 9 5 6 9 -9 13 -13 3 -19 10 -15
17 4 6 1 19 -6 28 -13 16 -12 16 6 1 11 -9 25 -15 31 -12z m384 19 c0 -3 -4
-8 -10 -11 -5 -3 -10 -1 -10 4 0 6 5 11 10 11 6 0 10 -2 10 -4z m62 -14 c3
-11 0 -19 -7 -19 -8 0 -11 7 -7 15 4 11 1 13 -8 7 -9 -5 -11 -4 -6 3 11 17 23
15 28 -6z m65 6 c9 -16 16 -54 7 -46 -3 3 -7 14 -8 23 -1 9 -9 21 -17 26 -9 5
-10 9 -2 9 6 0 15 -6 20 -12z m53 2 c0 -5 -2 -10 -4 -10 -3 0 -8 5 -11 10 -3
6 -1 10 4 10 6 0 11 -4 11 -10z m54 -6 c3 -8 2 -12 -4 -9 -6 3 -10 10 -10 16
0 14 7 11 14 -7z m-261 -8 c6 -15 -17 -16 -30 -1 -4 4 -2 5 5 1 6 -4 12 -2 12
3 0 15 7 14 13 -3z m240 1 c3 -8 -1 -14 -8 -14 -7 0 -11 6 -8 14 3 7 6 13 8
13 2 0 5 -6 8 -13z m-259 -36 c-5 -6 -34 20 -34 30 0 5 8 1 18 -8 10 -10 17
-20 16 -22z m447 15 c14 8 11 -2 -4 -14 -10 -8 -13 -6 -14 11 0 12 1 16 4 9 3
-6 9 -10 14 -6z m69 -1 c-14 -17 -30 -20 -30 -4 0 5 4 8 9 4 5 -3 12 -1 16 5
3 5 9 10 12 10 3 0 0 -7 -7 -15z m72 0 c10 2 20 0 23 -4 8 -14 -44 -6 -57 9
-11 12 -10 12 2 3 8 -6 23 -9 32 -8z m-702 -5 c0 -5 -4 -10 -10 -10 -5 0 -10
5 -10 10 0 6 5 10 10 10 6 0 10 -4 10 -10z m30 0 c0 -5 -2 -10 -4 -10 -3 0 -8
5 -11 10 -3 6 -1 10 4 10 6 0 11 -4 11 -10z m28 -10 c-7 -10 -14 -17 -17 -15
-4 4 18 35 25 35 2 0 -1 -9 -8 -20z m119 5 c0 -8 -6 -16 -13 -19 -7 -3 -10 2
-7 15 6 22 20 26 20 4z m603 5 c0 -5 -4 -10 -10 -10 -5 0 -10 5 -10 10 0 6 5
10 10 10 6 0 10 -4 10 -10z m-117 -13 c3 -7 -3 -13 -14 -13 -13 0 -15 3 -7 13
6 7 12 13 13 13 2 0 5 -6 8 -13z m157 9 c0 -2 -8 -10 -17 -17 -16 -13 -17 -12
-4 4 13 16 21 21 21 13z m-745 -16 c-3 -5 -1 -10 5 -10 7 0 8 -6 1 -18 -11
-20 -52 -23 -59 -4 -2 7 -7 10 -11 8 -4 -3 -8 1 -8 8 0 8 6 12 14 9 7 -3 13
-10 13 -17 0 -6 9 -12 20 -12 12 0 20 6 19 16 -2 21 0 30 7 30 3 0 2 -4 -1
-10z m178 -3 c-4 -6 0 -8 10 -4 11 4 14 2 10 -9 -3 -8 -8 -12 -11 -10 -3 3
-11 -2 -19 -12 -13 -15 -13 -15 -4 4 7 14 7 24 0 31 -6 6 -5 10 5 10 8 0 12
-5 9 -10z m94 7 c-3 -3 -12 -4 -19 -1 -8 3 -5 6 6 6 11 1 17 -2 13 -5z m113 2
c0 -2 -7 -7 -16 -10 -8 -3 -12 -2 -9 4 6 10 25 14 25 6z m28 -21 c-3 -3 -9 2
-12 12 -6 14 -5 15 5 6 7 -7 10 -15 7 -18z m-508 5 c0 -5 -7 -7 -15 -4 -8 4
-15 8 -15 10 0 2 7 4 15 4 8 0 15 -4 15 -10z m537 -5 c0 -8 -4 -12 -9 -9 -5 3
-6 10 -3 15 9 13 12 11 12 -6z m199 -11 c1 -9 0 -13 -4 -10 -3 4 -7 14 -8 22
-1 9 0 13 4 10 3 -4 7 -14 8 -22z m-579 1 c0 -8 -4 -12 -9 -9 -5 3 -6 10 -3
15 9 13 12 11 12 -6z m43 0 c-7 -8 -17 -15 -23 -15 -6 0 -2 7 9 15 25 19 30
19 14 0z m231 -8 c-10 -9 -11 -8 -5 6 3 10 9 15 12 12 3 -3 0 -11 -7 -18z
m154 14 c-9 -8 -36 -10 -30 -2 2 4 11 8 20 8 8 0 13 -3 10 -6z m-451 -17 c3
-8 2 -12 -4 -9 -6 3 -10 10 -10 16 0 14 7 11 14 -7z m100 -23 c-4 -3 -9 0 -11
7 -3 6 -10 9 -15 6 -7 -4 -8 -2 -4 5 6 9 11 9 22 0 8 -6 12 -15 8 -18z m165 7
c-11 -21 -15 -22 -25 -6 -5 7 -3 8 6 3 9 -6 12 -4 8 7 -4 8 0 15 7 15 10 0 11
-5 4 -19z m269 -8 c-7 -11 -14 -17 -17 -15 -2 3 1 11 7 18 7 8 8 18 4 22 -4 5
-1 5 5 1 10 -5 10 -11 1 -26z m-351 -11 c-16 -22 -16 -22 -14 -1 0 11 5 18 9
16 4 -3 8 0 8 7 0 7 3 10 6 6 3 -3 -1 -16 -9 -28z m-507 11 c0 -13 -12 -19
-26 -13 -8 3 -12 8 -9 12 5 10 35 10 35 1z m370 -5 c0 -8 -2 -15 -4 -15 -2 0
-6 7 -10 15 -3 8 -1 15 4 15 6 0 10 -7 10 -15z m350 5 c8 -5 11 -10 5 -10 -5
0 -17 5 -25 10 -8 5 -10 10 -5 10 6 0 17 -5 25 -10z m227 -14 c18 -21 18 -21
-3 -3 -11 9 -23 14 -26 11 -3 -3 -8 -1 -12 4 -11 18 25 8 41 -12z m-677 4 c0
-5 -4 -10 -10 -10 -5 0 -10 5 -10 10 0 6 5 10 10 10 6 0 10 -4 10 -10z m75 0
c3 -5 1 -10 -4 -10 -6 0 -11 5 -11 10 0 6 2 10 4 10 3 0 8 -4 11 -10z m132 4
c-3 -3 -12 -4 -19 -1 -8 3 -5 6 6 6 11 1 17 -2 13 -5z m175 -1 c-6 -2 -9 -10
-6 -15 4 -7 2 -8 -5 -4 -13 9 -5 26 12 25 9 0 8 -2 -1 -6z m33 -14 c-4 -5 -12
-9 -18 -8 -9 0 -8 2 1 6 6 2 9 10 6 15 -4 7 -2 8 5 4 6 -4 9 -12 6 -17z m100
11 c-3 -5 -1 -10 6 -10 7 0 10 -3 6 -6 -9 -9 -28 6 -22 17 4 5 8 9 11 9 3 0 2
-4 -1 -10z m-343 -19 c-2 -8 4 -10 17 -6 11 3 22 1 25 -4 4 -6 -5 -9 -21 -7
-16 1 -27 7 -26 14 2 6 -6 10 -17 9 -11 -1 -20 -7 -20 -14 0 -16 -16 -17 -26
-1 -4 6 -3 8 3 5 6 -4 13 -1 16 7 7 17 53 15 49 -3z m179 -14 c-13 -13 -26 -3
-16 12 3 6 11 8 17 5 6 -4 6 -10 -1 -17z m99 19 c0 -2 -7 -7 -16 -10 -8 -3
-12 -2 -9 4 6 10 25 14 25 6z m204 -26 c-6 -6 -10 -3 -10 10 0 13 4 16 10 10
7 -7 7 -13 0 -20z m101 18 c5 4 5 1 1 -6 -6 -10 -11 -10 -22 -1 -8 6 -14 14
-14 16 0 3 6 0 13 -6 8 -6 18 -7 22 -3z m-290 -8 c-3 -5 -12 -10 -18 -10 -7 0
-6 4 3 10 19 12 23 12 15 0z m35 0 c0 -5 -4 -10 -10 -10 -5 0 -10 5 -10 10 0
6 5 10 10 10 6 0 10 -4 10 -10z m-100 -32 c0 -19 -16 -5 -17 14 -2 18 0 20 7
8 5 -8 10 -18 10 -22z m315 -8 c-1 -22 -4 -43 -7 -46 -4 -4 -3 72 1 84 5 12 8
-5 6 -38z m-817 17 c7 -5 10 -13 7 -18 -9 -14 -19 -11 -32 10 -13 20 -1 24 25
8z m472 3 c0 -5 -5 -10 -11 -10 -5 0 -7 5 -4 10 3 6 8 10 11 10 2 0 4 -4 4
-10z m194 -13 c4 4 4 -1 0 -11 -7 -17 -8 -17 -19 3 -6 12 -15 18 -20 14 -4 -4
-5 -2 0 6 7 12 10 11 20 -2 7 -9 15 -14 19 -10z m114 3 c-7 -10 -14 -17 -17
-15 -4 4 18 35 25 35 2 0 -1 -9 -8 -20z m-198 0 c0 -5 -4 -10 -10 -10 -5 0
-10 5 -10 10 0 6 5 10 10 10 6 0 10 -4 10 -10z m34 -6 c3 -8 2 -12 -4 -9 -6 3
-10 1 -10 -4 0 -6 -5 -11 -10 -11 -6 0 -5 8 2 20 15 24 14 24 22 4z m111 -2
c-3 -3 -11 0 -18 7 -9 10 -8 11 6 5 10 -3 15 -9 12 -12z m-665 -27 c0 -12 -19
-12 -23 0 -4 9 -1 12 9 8 7 -3 14 -7 14 -8z m105 -3 c11 -6 15 -12 8 -12 -6 0
-15 5 -18 11 -5 7 -13 5 -25 -6 -20 -18 -42 -12 -34 9 6 15 41 15 69 -2z m585
12 c0 -8 -19 -13 -24 -6 -3 5 1 9 9 9 8 0 15 -2 15 -3z m-480 -23 c0 12 2 12
10 -1 8 -12 10 -12 10 -1 0 8 2 12 5 9 3 -3 3 -12 -1 -21 -7 -20 -38 -7 -48
20 -5 15 -4 15 9 -1 11 -14 15 -16 15 -5z m383 -8 c-7 -3 -13 -9 -13 -14 0 -6
5 -7 10 -4 6 3 10 1 10 -4 0 -14 -17 -14 -25 -1 -8 13 15 44 24 34 3 -4 0 -9
-6 -11z m87 -5 c0 -6 -6 -5 -15 2 -8 7 -15 14 -15 16 0 2 7 1 15 -2 8 -4 15
-11 15 -16z m-236 -9 c4 -3 -1 -12 -11 -20 -9 -8 -14 -9 -10 -3 4 7 0 15 -9
18 -11 4 -18 -1 -21 -14 -7 -27 -18 -25 -18 3 0 18 5 22 32 22 17 0 34 -3 37
-6z m206 -2 c-3 -5 6 -14 19 -21 20 -11 21 -14 7 -19 -10 -4 -15 -3 -12 2 3 5
-1 12 -10 15 -8 3 -13 10 -9 15 3 5 -5 12 -17 14 -21 5 -20 5 2 4 14 -1 23 -6
20 -10z m86 -16 c0 -12 -6 -17 -18 -13 -10 2 -18 9 -18 14 0 5 4 7 9 3 5 -3
12 -1 16 5 9 14 11 13 11 -9z m78 -3 c-3 -5 -10 -6 -15 -2 -5 3 -16 1 -23 -5
-9 -8 -13 -7 -13 2 0 8 12 13 28 13 15 0 26 -3 23 -8z m-109 -38 c3 -6 -1 -7
-9 -4 -18 7 -21 14 -7 14 6 0 13 -4 16 -10z m65 -8 c7 -8 7 -9 -1 -3 -15 12
-41 2 -32 -12 3 -6 1 -7 -5 -3 -15 9 -4 35 14 32 8 -1 19 -8 24 -14z m2720 8
c0 -5 -5 -10 -11 -10 -5 0 -7 5 -4 10 3 6 8 10 11 10 2 0 4 -4 4 -10z m-2804
-20 c5 0 10 -7 11 -17 3 -17 2 -17 -5 0 -4 10 -12 18 -17 17 -5 -1 -11 4 -13
12 -3 11 -2 11 6 0 5 -8 13 -13 18 -12z m2827 -3 c3 -8 2 -20 -3 -26 -5 -9 -7
-4 -7 13 0 29 2 32 10 13z m-29 -22 c-4 -8 -11 -12 -16 -9 -6 4 -5 10 3 15 19
12 19 11 13 -6z m-2748 -4 c-3 -5 1 -12 10 -15 8 -3 13 -10 10 -15 -4 -5 -1
-12 4 -14 7 -4 6 -5 0 -3 -7 1 -11 6 -11 11 0 6 -7 14 -15 18 -13 7 -11 27 2
27 3 0 3 -4 0 -9z m2717 -26 c-3 -9 -8 -14 -10 -11 -3 3 -2 9 2 15 9 16 15 13
8 -4z m30 -13 c-10 -10 -20 -17 -22 -16 -6 5 20 34 30 34 5 0 1 -8 -8 -18z
m-29 -27 c3 -8 1 -15 -4 -15 -6 0 -10 7 -10 15 0 8 2 15 4 15 2 0 6 -7 10 -15z
m-2669 -5 c3 -6 -1 -7 -9 -4 -18 7 -21 14 -7 14 6 0 13 -4 16 -10z m46 -17
c-12 -20 -14 -14 -5 12 4 9 9 14 11 11 3 -2 0 -13 -6 -23z m2574 -13 c-3 -5
-1 -10 6 -10 7 0 10 -3 6 -6 -9 -9 -28 6 -22 17 4 5 8 9 11 9 3 0 2 -4 -1 -10z
m-30 -40 c-3 -5 -2 -10 4 -10 5 0 12 6 14 13 4 9 6 9 6 -1 1 -7 -6 -15 -14
-18 -8 -4 -12 -11 -8 -17 3 -5 1 -7 -5 -4 -5 4 -9 15 -7 25 5 23 4 22 11 22 3
0 2 -4 -1 -10z m183 -4 c-19 -14 -25 -32 -8 -21 6 3 10 1 10 -5 0 -7 -7 -10
-15 -6 -9 3 -19 -3 -25 -14 -6 -11 -14 -19 -18 -19 -4 1 -9 0 -12 -1 -19 -7
-39 -7 -34 1 3 5 9 7 14 4 5 -3 13 1 17 10 9 15 72 65 82 65 3 0 -2 -7 -11
-14z m-2872 -8 c3 -4 -1 -5 -10 -4 -8 1 -18 5 -22 8 -3 4 1 5 10 4 8 -1 18 -5
22 -8z m225 -5 c13 -17 13 -17 -6 -3 -11 8 -22 16 -24 17 -2 2 0 3 6 3 6 0 17
-8 24 -17z m-15 -15 c4 -7 3 -8 -4 -4 -7 4 -12 2 -12 -5 0 -7 -3 -10 -6 -6 -6
5 3 27 11 27 2 0 7 -5 11 -12z m61 -30 c2 -12 1 -19 -3 -16 -3 3 -6 12 -8 20
-1 7 -5 20 -10 28 -7 12 -6 13 4 3 8 -7 15 -23 17 -35z m-232 0 c-2 -10 0 -19
6 -19 5 -1 13 -2 18 -3 5 0 13 -4 17 -8 8 -8 -31 -2 -46 7 -6 4 -8 11 -5 16 4
5 1 9 -4 9 -6 0 -11 4 -11 8 0 5 6 9 14 9 8 0 13 -8 11 -19z m4211 7 c-3 -8 2
-19 12 -24 16 -10 16 -10 0 -11 -9 0 -19 4 -22 9 -6 10 3 41 11 41 3 0 3 -7
-1 -15z m-3929 -45 c14 -11 22 -20 18 -20 -4 0 -18 9 -32 20 -14 11 -22 20
-18 20 4 0 18 -9 32 -20z m2422 -26 c-6 -8 -15 -14 -20 -14 -11 0 -7 23 6 32
15 11 27 -3 14 -18z m-2599 2 c0 4 6 -1 14 -12 13 -16 13 -20 0 -27 -18 -10
-37 1 -30 18 2 7 -1 19 -7 26 -10 11 -9 11 6 0 9 -7 17 -10 17 -5z m175 -7 c4
-6 14 -8 24 -4 12 5 13 3 4 -6 -9 -9 -17 -8 -34 5 -13 9 -18 16 -12 16 7 0 15
-5 18 -11z m1130 2 c3 -5 2 -12 -3 -15 -5 -3 -9 1 -9 9 0 17 3 19 12 6z m1217
-28 c-6 -3 -10 -9 -7 -13 3 -5 -3 -14 -14 -20 -14 -7 -22 -7 -27 2 -4 6 -3 13
3 15 6 2 19 10 29 18 10 7 21 11 24 8 3 -3 -1 -8 -8 -10z m-2437 -13 c-3 -4 7
-7 22 -7 16 0 34 -10 46 -24 19 -24 40 -30 67 -18 12 6 15 -1 16 -29 l1 -35
-18 22 c-10 12 -26 21 -36 19 -11 -2 -22 7 -31 25 -12 25 -16 27 -30 14 -15
-13 -19 -12 -39 13 -16 19 -18 27 -8 27 8 0 12 -4 10 -7z m1099 2 c3 -5 -1 -9
-9 -9 -8 0 -12 4 -9 9 3 4 7 8 9 8 2 0 6 -4 9 -8z m201 -1 c3 -5 2 -12 -3 -15
-5 -3 -9 1 -9 9 0 17 3 19 12 6z m-91 -26 c-4 -8 -10 -15 -15 -15 -18 0 -24
-2 -37 -12 -7 -6 -15 -8 -19 -4 -3 3 -1 6 6 6 7 0 10 4 6 9 -3 6 3 8 14 6 11
-2 25 3 32 11 15 18 20 18 13 -1z m1153 -5 c1 -11 -2 -20 -7 -20 -6 0 -7 17
-1 38 3 8 7 -1 8 -18z m-1264 -5 c-3 -9 -8 -14 -10 -11 -3 3 -2 9 2 15 9 16
15 13 8 -4z m163 -14 c1 -6 0 -7 -3 -1 -2 5 -9 8 -13 5 -5 -3 -11 -1 -14 4 -4
5 2 8 11 7 9 -2 18 -8 19 -15z m58 3 c3 -9 -1 -11 -11 -7 -12 5 -14 3 -8 -8 5
-8 4 -11 0 -6 -5 4 -10 13 -11 21 -2 16 24 17 30 0z m-339 -3 c3 -5 0 -13 -6
-17 -7 -4 -9 -3 -5 4 3 6 -2 13 -11 15 -16 4 -16 5 -1 6 9 0 19 -3 23 -8z
m-77 -27 c0 -17 -3 -22 -8 -13 -5 6 -6 18 -3 26 8 19 11 16 11 -13z m38 14 c4
-7 3 -8 -4 -4 -7 4 -12 2 -12 -5 0 -7 -3 -10 -6 -6 -6 5 3 27 11 27 2 0 7 -5
11 -12z m50 -16 c-17 -16 -18 -16 -5 5 7 12 15 20 18 17 3 -2 -3 -12 -13 -22z
m134 24 c0 -3 -4 -8 -10 -11 -5 -3 -10 -1 -10 4 0 6 5 11 10 11 6 0 10 -2 10
-4z m293 -9 c3 -8 2 -20 -3 -26 -5 -9 -7 -4 -7 13 0 29 2 32 10 13z m-1192
-14 c8 -8 5 -14 -11 -23 -15 -8 -20 -8 -16 -1 4 6 3 11 -2 11 -5 0 -9 6 -9 14
0 16 22 15 38 -1z m621 10 c-6 -2 -10 -9 -7 -14 4 -5 -1 -6 -10 -2 -13 5 -14
7 -3 14 7 5 18 8 23 8 6 0 4 -3 -3 -6z m252 -24 c-2 -4 5 -7 16 -6 11 1 19 6
16 12 -2 7 2 12 9 12 10 0 11 -5 4 -18 -5 -10 -13 -20 -17 -23 -14 -8 -35 11
-39 36 -2 17 -1 19 6 8 5 -8 8 -17 5 -21z m-220 5 c3 -8 2 -12 -4 -9 -6 3 -10
1 -10 -4 0 -6 -5 -11 -10 -11 -6 0 -5 8 2 20 15 24 14 24 22 4z m195 -7 c0 -9
-2 -8 -6 1 -2 6 -10 9 -15 6 -7 -4 -8 -2 -4 5 9 13 26 5 25 -12z m162 6 c13
-17 13 -17 -6 -3 -11 8 -22 16 -24 17 -2 2 0 3 6 3 6 0 17 -8 24 -17z m26 -5
c-3 -8 -6 -5 -6 6 -1 11 2 17 5 13 3 -3 4 -12 1 -19z m31 -3 c-3 -3 -9 2 -12
12 -6 14 -5 15 5 6 7 -7 10 -15 7 -18z m51 22 c-2 -1 -13 -9 -24 -17 -19 -14
-19 -14 -6 3 7 9 18 17 24 17 6 0 8 -1 6 -3z m104 -8 c-6 -6 -9 -18 -6 -25 3
-9 -2 -14 -13 -14 -16 0 -17 2 -4 10 8 5 11 10 6 10 -9 0 13 30 22 30 3 0 1
-5 -5 -11z m-708 -9 c-3 -5 -14 -10 -23 -9 -14 0 -13 2 3 9 27 11 27 11 20 0z
m225 0 c0 -5 -7 -7 -15 -4 -8 4 -15 8 -15 10 0 2 7 4 15 4 8 0 15 -4 15 -10z
m517 -6 c-3 -3 -12 -4 -19 -1 -8 3 -5 6 6 6 11 1 17 -2 13 -5z m-1113 -19 c-4
-8 -11 -15 -16 -15 -6 0 -5 6 2 15 7 8 14 15 16 15 2 0 1 -7 -2 -15z m207 -30
c5 -4 9 -10 9 -14 0 -13 -55 -8 -72 6 -8 7 -27 10 -44 7 -19 -3 -24 -1 -15 5
14 9 105 6 122 -4z m669 -15 c0 -5 -5 -10 -11 -10 -5 0 -7 5 -4 10 3 6 8 10
11 10 2 0 4 -4 4 -10z m120 0 c0 -5 -4 -10 -10 -10 -5 0 -10 5 -10 10 0 6 5
10 10 10 6 0 10 -4 10 -10z m-647 -9 c4 -1 7 -5 7 -10 0 -7 -18 -8 -53 -2 -5
0 -6 5 -3 10 4 5 14 8 24 6 9 -2 20 -4 25 -4z m607 -32 c0 7 5 9 10 6 6 -3 10
-1 10 4 0 6 5 11 11 11 14 0 2 -18 -21 -30 -14 -8 -21 -4 -35 18 l-16 27 20
-24 c12 -13 21 -18 21 -12z m144 23 c3 -5 -1 -9 -9 -9 -8 0 -12 4 -9 9 3 4 7
8 9 8 2 0 6 -4 9 -8z m50 0 c3 -5 -1 -9 -9 -9 -8 0 -12 4 -9 9 3 4 7 8 9 8 2
0 6 -4 9 -8z m-270 -17 c-4 -8 -7 -15 -9 -15 -2 0 -5 7 -9 15 -3 9 0 15 9 15
9 0 12 -6 9 -15z m159 -2 c-3 -7 -9 -13 -13 -13 -4 0 -10 6 -13 13 -3 7 3 13
13 13 10 0 16 -6 13 -13z m-193 -17 c0 -3 -4 -8 -10 -11 -5 -3 -10 -1 -10 4 0
6 5 11 10 11 6 0 10 -2 10 -4z"/>
<path d="M1150 1440 c0 -6 -4 -9 -9 -6 -5 3 -14 -1 -21 -9 -11 -14 -15 -14
-34 2 -12 10 -16 11 -9 4 18 -21 -1 -51 -28 -44 -16 4 -17 8 -7 14 10 7 10 9
1 9 -23 0 -28 2 -43 13 -13 10 -13 10 -1 -5 12 -17 9 -23 -12 -19 -5 1 -6 -3
-2 -9 4 -7 11 -8 18 -1 14 11 57 -20 57 -41 0 -7 11 -1 25 15 14 15 31 27 36
27 6 0 9 6 6 13 -3 8 1 14 8 14 7 0 11 -6 9 -12 -3 -7 2 -18 11 -25 9 -8 15
-8 15 -2 0 6 -5 14 -11 18 -8 4 -7 9 2 15 10 6 21 0 36 -19 13 -15 23 -22 23
-15 0 6 -5 15 -10 18 -6 4 -8 9 -6 13 2 4 -2 15 -9 25 -11 15 -13 16 -19 2 -3
-8 -11 -15 -18 -15 -10 0 -10 2 1 9 9 6 10 11 2 15 -6 4 -11 2 -11 -4z m-59
-53 c-10 -9 -11 -8 -5 6 3 10 9 15 12 12 3 -3 0 -11 -7 -18z"/>
<path d="M1286 1442 c-3 -5 1 -9 9 -9 8 0 12 4 9 9 -3 4 -7 8 -9 8 -2 0 -6 -4
-9 -8z"/>
<path d="M615 1309 c-4 -6 -5 -12 -2 -15 2 -3 7 2 10 11 7 17 1 20 -8 4z"/>
<path d="M1393 1565 c0 -8 4 -12 9 -9 5 3 6 10 3 15 -9 13 -12 11 -12 -6z"/>
<path d="M1079 1553 c-13 -16 -12 -17 4 -4 9 7 17 15 17 17 0 8 -8 3 -21 -13z"/>
<path d="M1635 1560 c-3 -5 -1 -10 4 -10 6 0 11 5 11 10 0 6 -2 10 -4 10 -3 0
-8 -4 -11 -10z"/>
<path d="M970 1541 c0 -6 4 -13 10 -16 6 -3 7 1 4 9 -7 18 -14 21 -14 7z"/>
<path d="M1010 1540 c0 -5 5 -10 11 -10 5 0 7 5 4 10 -3 6 -8 10 -11 10 -2 0
-4 -4 -4 -10z"/>
<path d="M1330 1540 c0 -5 5 -10 11 -10 5 0 7 5 4 10 -3 6 -8 10 -11 10 -2 0
-4 -4 -4 -10z"/>
<path d="M1276 1527 c3 -10 9 -15 12 -12 3 3 0 11 -7 18 -10 9 -11 8 -5 -6z"/>
<path d="M1066 1518 c3 -5 10 -6 15 -3 13 9 11 12 -6 12 -8 0 -12 -4 -9 -9z"/>
<path d="M1364 1522 c4 -3 14 -7 22 -8 9 -1 13 0 10 4 -4 3 -14 7 -22 8 -9 1
-13 0 -10 -4z"/>
<path d="M1610 1520 c0 -5 5 -10 11 -10 5 0 7 5 4 10 -3 6 -8 10 -11 10 -2 0
-4 -4 -4 -10z"/>
<path d="M1095 1511 c-3 -5 0 -13 6 -17 8 -5 9 -3 4 6 -6 10 -4 12 9 7 10 -4
15 -3 11 3 -8 13 -22 13 -30 1z"/>
<path d="M1235 1510 c-4 -6 1 -7 11 -3 13 5 15 3 9 -7 -5 -9 -4 -11 4 -6 6 4
9 12 6 17 -8 12 -22 12 -30 -1z"/>
<path d="M1477 1513 c-10 -9 -9 -23 1 -23 5 0 9 7 9 15 0 17 -1 18 -10 8z"/>
<path d="M1146 1497 c3 -10 9 -15 12 -12 3 3 0 11 -7 18 -10 9 -11 8 -5 -6z"/>
<path d="M1310 1501 c0 -6 4 -13 10 -16 6 -3 7 1 4 9 -7 18 -14 21 -14 7z"/>
<path d="M1516 1498 c3 -4 11 -5 19 -1 21 7 19 12 -4 10 -11 0 -18 -5 -15 -9z"/>
<path d="M1590 1505 c0 -5 5 -17 10 -25 5 -8 10 -10 10 -5 0 6 -5 17 -10 25
-5 8 -10 11 -10 5z"/>
<path d="M1347 1483 c3 -7 9 -10 14 -7 14 8 11 21 -5 21 -8 0 -12 -6 -9 -14z"/>
<path d="M1650 1485 c-7 -9 -8 -15 -2 -15 5 0 12 7 16 15 3 8 4 15 2 15 -2 0
-9 -7 -16 -15z"/>
<path d="M710 1479 c0 -5 5 -7 10 -4 6 3 10 8 10 11 0 2 -4 4 -10 4 -5 0 -10
-5 -10 -11z"/>
<path d="M1120 1480 c-8 -5 -12 -11 -9 -14 2 -3 11 -1 19 4 8 5 12 11 9 14 -2
3 -11 1 -19 -4z"/>
<path d="M1550 1475 c0 -8 2 -15 4 -15 2 0 6 7 10 15 3 8 1 15 -4 15 -6 0 -10
-7 -10 -15z"/>
<path d="M613 1465 c0 -8 4 -12 9 -9 5 3 6 10 3 15 -9 13 -12 11 -12 -6z"/>
<path d="M797 1469 c7 -7 15 -10 18 -7 3 3 -2 9 -12 12 -14 6 -15 5 -6 -5z"/>
<path d="M655 1460 c-3 -5 -1 -10 4 -10 6 0 11 5 11 10 0 6 -2 10 -4 10 -3 0
-8 -4 -11 -10z"/>
<path d="M836 1458 c3 -5 10 -6 15 -3 13 9 11 12 -6 12 -8 0 -12 -4 -9 -9z"/>
<path d="M865 1450 c-4 -11 -11 -18 -16 -15 -5 4 -6 -2 -2 -12 6 -16 5 -16
-10 -4 -9 7 -14 17 -11 22 3 5 0 9 -5 9 -6 0 -11 -6 -11 -12 0 -7 -9 -24 -20
-38 -12 -15 -18 -18 -14 -7 4 10 1 17 -6 17 -6 0 -9 -4 -5 -9 3 -5 1 -12 -4
-16 -6 -3 -8 -12 -5 -20 6 -14 -32 -41 -52 -37 -6 1 -11 -5 -11 -13 0 -19 11
-19 31 1 19 19 63 28 71 14 3 -5 21 4 40 22 19 17 32 34 30 39 -3 4 3 13 12
19 17 11 17 11 1 6 -22 -7 -23 7 -3 28 17 17 19 26 6 26 -5 0 -13 -9 -16 -20z
m-30 -40 c4 -6 10 -8 15 -5 10 6 8 -15 -3 -33 -5 -7 -12 -10 -17 -7 -4 3 -10
-2 -14 -10 -3 -8 -11 -15 -18 -14 -10 0 -10 2 0 6 6 2 12 9 12 14 0 13 -23 7
-35 -9 -8 -10 -11 -9 -11 7 0 11 4 17 8 15 4 -3 15 7 24 21 17 27 29 31 39 15z"/>
<path d="M806 1392 c-15 -18 -15 -19 8 -18 32 2 40 10 23 25 -11 8 -18 7 -31
-7z m28 0 c3 -5 -1 -9 -9 -9 -8 0 -12 4 -9 9 3 4 7 8 9 8 2 0 6 -4 9 -8z"/>
<path d="M733 1444 c0 -7 4 -11 8 -8 4 2 10 -2 12 -8 4 -8 6 -7 6 3 1 9 -5 19
-12 22 -8 3 -14 -1 -14 -9z"/>
<path d="M778 1448 c10 -13 10 -17 0 -21 -9 -4 -9 -6 -1 -6 20 -2 24 16 5 30
-15 13 -16 12 -4 -3z"/>
<path d="M576 1421 c-3 -5 1 -14 9 -21 8 -7 12 -16 9 -21 -3 -5 0 -9 5 -9 16
0 13 16 -4 30 -8 7 -12 16 -9 21 3 5 3 9 0 9 -3 0 -7 -4 -10 -9z"/>
<path d="M1334 1409 c-3 -5 -1 -16 4 -25 8 -15 11 -15 31 5 l21 21 -3 -21 c-1
-13 4 -23 13 -24 8 -2 22 -6 31 -10 10 -3 20 -1 24 5 5 8 13 6 26 -6 11 -9 19
-12 19 -6 0 6 -12 18 -27 26 -16 8 -27 18 -25 23 1 4 -7 9 -18 9 -11 1 -20 -5
-20 -12 0 -8 -4 -14 -9 -14 -5 0 -8 8 -7 17 1 11 -8 17 -27 18 -15 1 -30 -2
-33 -6z m112 -24 c-2 -14 -16 -22 -16 -10 0 3 0 10 0 15 0 6 4 10 9 10 5 0 8
-7 7 -15z"/>
<path d="M638 1403 c7 -3 16 -2 19 1 4 3 -2 6 -13 5 -11 0 -14 -3 -6 -6z"/>
<path d="M476 1387 c3 -10 9 -15 12 -12 3 3 0 11 -7 18 -10 9 -11 8 -5 -6z"/>
<path d="M1555 1379 c-4 -6 -13 -8 -21 -5 -18 7 -18 3 5 -22 24 -29 29 -28 27
8 -1 33 -2 35 -11 19z"/>
<path d="M1631 1376 c-9 -10 -8 -16 4 -26 13 -11 15 -9 13 14 -3 30 -2 30 -17
12z"/>
<path d="M514 1313 c19 -23 37 -22 35 0 0 8 -2 8 -6 -1 -4 -10 -10 -9 -27 5
l-21 18 19 -22z"/>
<path d="M501 1274 c0 -11 3 -14 6 -6 3 7 2 16 -1 19 -3 4 -6 -2 -5 -13z"/>
<path d="M674 1275 c-12 -8 -24 -12 -27 -9 -3 3 -8 0 -13 -7 -4 -8 -3 -10 5
-5 6 4 14 1 17 -7 3 -8 13 -14 22 -12 9 2 19 4 22 4 8 1 9 51 1 51 -4 0 -16
-7 -27 -15z m17 -8 c-6 -8 -9 -17 -6 -21 3 -3 -1 -1 -7 4 -10 9 -10 13 2 20
21 13 24 12 11 -3z"/>
<path d="M470 1241 c0 -6 4 -12 8 -15 5 -3 9 1 9 9 0 8 -4 15 -9 15 -4 0 -8
-4 -8 -9z"/>
<path d="M4500 1220 c-12 -7 -10 -9 7 -7 12 0 19 5 17 9 -6 10 -6 10 -24 -2z"/>
<path d="M500 1216 c0 -2 7 -7 16 -10 8 -3 12 -2 9 4 -6 10 -25 14 -25 6z"/>
<path d="M4455 1201 c-3 -5 -2 -12 3 -15 5 -3 9 1 9 9 0 17 -3 19 -12 6z"/>
<path d="M724 1191 c4 -6 2 -11 -4 -11 -6 0 -9 -4 -5 -10 3 -5 13 -7 23 -4 14
5 14 4 2 -4 -8 -6 -17 -9 -21 -6 -4 2 -10 0 -14 -6 -4 -6 -11 -7 -17 -4 -7 4
-8 2 -4 -5 8 -13 37 -11 48 3 4 6 14 4 25 -4 13 -10 15 -10 6 -1 -6 7 -9 19
-6 26 2 8 -5 19 -17 25 -15 8 -20 8 -16 1z"/>
<path d="M510 1174 c6 -6 6 -15 2 -19 -4 -5 -1 -5 6 -1 7 4 9 12 6 18 -5 8 -1
9 10 5 9 -4 15 -3 11 2 -3 6 -14 9 -25 8 -13 -1 -16 -5 -10 -13z"/>
<path d="M4695 1180 c-3 -5 -1 -10 4 -10 6 0 11 5 11 10 0 6 -2 10 -4 10 -3 0
-8 -4 -11 -10z"/>
<path d="M4465 1159 c-4 -6 -4 -13 -1 -16 3 -4 6 -1 6 6 0 7 5 9 10 6 6 -3 10
-1 10 4 0 14 -17 14 -25 0z"/>
<path d="M4550 1161 c0 -6 4 -13 10 -16 6 -3 7 1 4 9 -7 18 -14 21 -14 7z"/>
<path d="M4619 1153 c-13 -17 -13 -17 6 -3 11 8 22 16 24 17 2 2 0 3 -6 3 -6
0 -17 -8 -24 -17z"/>
<path d="M4750 1161 c0 -5 8 -15 18 -22 15 -12 16 -12 5 2 -7 9 -10 19 -6 22
3 4 1 7 -5 7 -7 0 -12 -4 -12 -9z"/>
<path d="M4999 1153 c-13 -16 -12 -17 4 -4 9 7 17 15 17 17 0 8 -8 3 -21 -13z"/>
<path d="M535 1150 c-3 -6 1 -7 9 -4 18 7 21 14 7 14 -6 0 -13 -4 -16 -10z"/>
<path d="M4428 1143 c7 -3 16 -2 19 1 4 3 -2 6 -13 5 -11 0 -14 -3 -6 -6z"/>
<path d="M4503 1143 c-7 -3 -13 -12 -13 -21 0 -15 -2 -15 -10 -2 -6 10 -10 11
-10 3 0 -7 -5 -13 -11 -13 -5 0 -7 5 -4 10 3 6 1 10 -5 10 -7 0 -9 -7 -6 -16
4 -10 2 -14 -6 -11 -7 2 -12 10 -10 16 1 7 -2 10 -7 7 -5 -4 -11 -3 -14 1 -2
5 -2 2 -1 -4 2 -7 -2 -13 -9 -13 -7 0 -4 -5 6 -11 18 -11 14 -29 -6 -29 -7 0
-6 4 3 10 9 6 10 10 3 10 -21 0 -24 -19 -4 -29 24 -13 34 -14 26 -2 -6 10 21
41 35 41 5 0 7 -7 4 -15 -3 -8 -10 -13 -16 -12 -6 1 -12 -9 -14 -23 -2 -14 -1
-20 3 -15 12 15 33 17 31 3 -2 -7 2 -12 9 -13 18 0 28 -15 10 -15 -9 0 -17 -5
-17 -11 0 -5 4 -8 9 -4 5 3 13 0 17 -6 5 -8 3 -9 -6 -4 -9 5 -11 4 -6 -4 4 -6
12 -9 17 -6 5 3 6 -1 2 -10 -5 -13 -7 -14 -14 -3 -5 7 -9 9 -10 3 0 -5 -2 -21
-5 -33 -3 -16 0 -22 8 -20 7 3 13 10 13 15 0 19 12 25 18 9 4 -11 -4 -21 -23
-31 -29 -15 -35 -13 -30 10 9 43 10 59 1 46 -6 -9 -11 -10 -15 -2 -4 6 -3 11
1 11 5 0 9 9 10 20 2 17 -1 19 -20 9 -19 -9 -19 -8 3 11 15 13 18 20 9 17 -9
-3 -22 0 -29 6 -9 9 -11 8 -8 -7 1 -10 -3 -21 -10 -24 -15 -5 -13 28 3 41 6 5
1 7 -10 5 -18 -3 -21 -14 -16 -58 1 -5 8 -7 16 -4 9 4 23 -4 35 -17 22 -27 26
-44 8 -33 -10 6 -10 4 0 -8 10 -13 10 -17 0 -20 -10 -4 -10 -8 -1 -19 10 -12
8 -15 -7 -16 -10 -1 -21 5 -24 13 -4 10 -2 12 5 8 7 -4 10 -2 8 5 -7 19 -24
13 -25 -8 -1 -11 5 -22 12 -25 20 -8 5 -38 -16 -31 -25 8 -46 -20 -30 -40 12
-14 25 -12 25 3 1 11 55 66 55 56 0 -5 5 -2 10 6 5 8 23 15 41 15 20 0 34 6
36 15 4 13 3 13 -6 0 -5 -8 -13 -12 -16 -8 -3 3 18 31 47 63 29 31 54 52 56
46 2 -6 8 -11 14 -11 6 0 6 6 -2 15 -8 10 -9 15 -1 15 6 0 16 -9 23 -20 7 -11
17 -20 22 -20 4 0 3 7 -4 15 -13 15 -2 21 16 8 5 -5 1 0 -9 9 -11 10 -23 16
-27 13 -4 -3 -13 2 -21 11 -10 12 -9 18 5 32 17 16 18 16 12 -8 -3 -14 -3 -20
0 -13 4 9 12 7 27 -7 18 -18 22 -18 30 -5 5 9 6 21 3 28 -2 7 -5 4 -5 -5 -1
-25 -18 -22 -37 6 -8 14 -21 23 -28 20 -7 -3 -18 5 -25 18 -11 22 -9 10 5 -29
4 -10 -8 -3 -26 16 -31 33 -33 34 -44 15 -12 -21 -36 -30 -36 -14 0 6 7 13 15
16 8 4 15 15 15 26 0 12 4 17 13 12 6 -4 8 -3 4 1 -9 11 -27 14 -44 8z m2 -43
c-11 -12 -15 -26 -10 -37 5 -12 9 -14 12 -5 3 6 9 10 14 6 5 -3 12 2 15 10 8
21 30 21 38 0 8 -22 -11 -54 -29 -48 -8 4 -12 10 -9 15 3 5 10 6 16 3 6 -4 8
-2 4 4 -3 5 0 13 6 15 8 4 7 6 -3 6 -9 1 -20 -6 -23 -15 -3 -8 -10 -13 -15 -9
-5 3 -13 0 -17 -6 -4 -8 -3 -9 5 -5 7 5 10 2 9 -6 -2 -8 5 -12 17 -10 17 2 17
0 -4 -11 -16 -10 -20 -16 -11 -19 11 -3 11 -8 1 -24 -10 -14 -11 -15 -7 -2 3
10 1 20 -5 24 -6 3 -8 12 -5 19 6 16 -17 38 -28 27 -4 -4 -6 0 -4 8 2 8 -2 14
-9 15 -6 0 -15 4 -20 9 -4 5 -3 7 3 3 11 -6 35 17 55 55 8 15 14 18 17 10 2
-7 -4 -22 -13 -32z m99 -66 c7 -18 -10 -44 -27 -44 -5 0 -2 9 8 20 10 11 14
20 9 20 -5 0 -15 -9 -22 -21 -7 -12 -16 -19 -19 -16 -6 6 28 56 38 57 4 0 10
-7 13 -16z m-41 -47 c4 3 7 2 7 -4 0 -5 -12 -20 -26 -34 l-25 -24 10 28 c6 16
8 34 4 40 -5 8 -2 8 9 0 8 -7 18 -10 21 -6z m-68 -97 c-3 -5 -12 -10 -18 -10
-7 0 -6 4 3 10 19 12 23 12 15 0z"/>
<path d="M4470 1066 c0 -2 8 -10 18 -17 15 -13 16 -12 3 4 -13 16 -21 21 -21
13z"/>
<path d="M4580 1131 c0 -7 -4 -9 -10 -6 -5 3 -10 1 -10 -4 0 -6 4 -11 9 -11
13 0 25 20 17 27 -3 4 -6 1 -6 -6z"/>
<path d="M510 1118 c0 -4 4 -8 9 -8 6 0 12 4 15 8 3 5 -1 9 -9 9 -8 0 -15 -4
-15 -9z"/>
<path d="M843 1111 c0 -11 5 -17 10 -14 4 2 14 1 20 -4 7 -4 5 -1 -5 8 -9 9
-14 19 -11 23 4 3 1 6 -5 6 -6 0 -10 -9 -9 -19z"/>
<path d="M4609 1113 c8 -15 17 -20 32 -16 12 4 20 2 16 -3 -3 -5 1 -17 8 -27
13 -17 14 -17 20 3 4 12 4 24 1 27 -3 4 -6 -2 -6 -12 0 -10 -3 -15 -7 -11 -5
4 -8 13 -8 19 0 7 -9 12 -20 12 -11 0 -26 7 -33 15 -11 13 -11 12 -3 -7z"/>
<path d="M4690 1120 c0 -5 5 -10 10 -10 6 0 10 5 10 10 0 6 -4 10 -10 10 -5 0
-10 -4 -10 -10z"/>
<path d="M4826 1117 c3 -10 9 -15 12 -12 3 3 0 11 -7 18 -10 9 -11 8 -5 -6z"/>
<path d="M4885 1122 c4 -4 12 -7 18 -7 7 -1 11 -7 9 -14 -1 -7 2 -9 9 -6 13 9
-3 28 -27 31 -9 1 -13 -1 -9 -4z"/>
<path d="M4975 1120 c-3 -5 3 -7 12 -5 10 1 25 -2 33 -8 12 -9 13 -9 3 3 -15
16 -41 22 -48 10z"/>
<path d="M5096 1113 c-6 -14 -5 -15 5 -6 7 7 10 15 7 18 -3 3 -9 -2 -12 -12z"/>
<path d="M916 1104 c-20 -20 -20 -23 2 -20 9 2 27 -4 40 -12 21 -13 22 -13 15
3 -5 15 -3 17 13 11 15 -6 16 -5 7 5 -10 9 -15 10 -27 0 -16 -13 -32 1 -21 19
10 16 -12 12 -29 -6z"/>
<path d="M1117 1089 c-9 -12 -14 -25 -12 -29 6 -9 75 -7 75 3 0 4 0 12 0 19 0
6 -7 4 -18 -5 -18 -17 -32 -14 -32 7 0 6 5 4 10 -4 5 -8 10 -10 10 -5 0 6 -4
16 -9 24 -7 10 -12 8 -24 -10z"/>
<path d="M650 1091 c0 -13 39 -35 48 -27 3 3 0 6 -6 6 -6 0 -18 7 -26 16 -9 8
-16 11 -16 5z"/>
<path d="M4892 1080 c0 -14 2 -19 5 -12 2 6 2 18 0 25 -3 6 -5 1 -5 -13z"/>
<path d="M4988 1093 c7 -3 16 -2 19 1 4 3 -2 6 -13 5 -11 0 -14 -3 -6 -6z"/>
<path d="M5030 1085 c-7 -9 -11 -17 -9 -20 3 -2 10 5 17 15 14 24 10 26 -8 5z"/>
<path d="M5175 1091 c-3 -6 -14 -8 -25 -6 -11 2 -20 -1 -20 -6 0 -5 6 -9 13
-8 27 3 38 -1 31 -13 -4 -7 -3 -10 1 -5 5 4 9 16 10 27 2 22 -1 25 -10 11z"/>
<path d="M591 1087 c2 -1 12 -9 22 -16 15 -12 17 -12 11 3 -3 9 -13 16 -22 16
-8 0 -13 -1 -11 -3z"/>
<path d="M1016 1073 c-6 -14 -5 -15 5 -6 7 7 10 15 7 18 -3 3 -9 -2 -12 -12z"/>
<path d="M4749 1056 c9 -18 18 -32 20 -30 6 5 -20 64 -29 64 -4 0 0 -15 9 -34z"/>
<path d="M4770 1075 c0 -8 2 -15 4 -15 2 0 6 7 10 15 3 8 1 15 -4 15 -6 0 -10
-7 -10 -15z"/>
<path d="M4806 1078 c3 -4 9 -8 15 -8 5 0 9 4 9 8 0 5 -7 9 -15 9 -8 0 -12 -4
-9 -9z"/>
<path d="M4919 1073 c-11 -15 -11 -16 1 -5 20 17 35 15 20 -3 -8 -9 -8 -15 -2
-15 6 0 12 4 14 10 2 6 9 6 18 0 12 -7 10 -11 -10 -19 -23 -9 -23 -10 -4 -10
32 -1 37 25 9 43 -30 20 -30 20 -46 -1z"/>
<path d="M5073 1080 c-13 -5 -23 -11 -23 -14 0 -7 40 6 46 15 6 10 6 10 -23
-1z"/>
<path d="M713 1058 c-2 -18 0 -20 7 -8 12 18 13 30 2 30 -4 0 -9 -10 -9 -22z"/>
<path d="M4708 1072 c8 -5 12 -11 11 -13 -5 -8 20 -44 26 -38 3 4 -1 14 -10
22 -9 9 -15 20 -15 24 1 4 -4 9 -12 11 -11 3 -11 2 0 -6z"/>
<path d="M4793 1063 c4 -6 4 -13 0 -16 -5 -2 -3 -2 4 -1 18 4 34 -21 27 -42
-5 -16 -4 -16 5 -4 9 12 11 12 11 1 0 -8 -8 -20 -17 -27 -17 -13 -17 -14 1 -7
14 5 17 3 11 -7 -5 -8 -4 -11 3 -6 6 3 13 2 17 -4 9 -15 36 -12 57 7 11 9 18
11 18 5 0 -7 -9 -17 -19 -24 -10 -6 -17 -18 -14 -25 4 -9 0 -11 -11 -7 -9 3
-16 2 -16 -4 0 -19 31 -6 43 19 13 26 38 32 45 11 2 -7 -2 -10 -12 -6 -22 9
-20 -3 3 -15 16 -9 18 -7 17 17 -1 20 6 30 26 39 28 14 62 8 52 -9 -4 -6 -10
-5 -15 3 -8 12 -10 12 -18 1 -4 -8 -12 -12 -17 -10 -14 5 -13 -46 1 -65 11
-15 17 -17 32 -7 15 9 15 11 1 6 -19 -6 -34 10 -35 39 -1 14 5 21 19 22 16 2
18 -1 9 -10 -14 -14 -15 -37 -1 -37 5 0 7 6 4 13 -3 8 2 14 11 14 9 0 14 -6
11 -13 -3 -8 -1 -16 4 -19 5 -3 7 -12 4 -19 -6 -16 23 -30 32 -15 3 6 3 13 0
16 -3 4 -6 1 -6 -6 0 -7 -4 -10 -10 -6 -14 9 -2 31 19 32 12 1 18 -5 17 -15 0
-9 4 -17 9 -18 24 -2 65 -25 65 -35 0 -7 3 -9 6 -6 4 4 1 14 -7 23 -12 15 -12
16 8 10 12 -4 24 -2 28 4 3 5 11 10 17 10 6 0 2 -10 -9 -22 -11 -13 -24 -30
-28 -38 -4 -8 9 4 30 28 20 24 40 40 43 37 3 -3 -5 -17 -19 -33 -13 -15 -20
-24 -16 -20 13 10 46 -23 40 -41 -4 -14 -3 -14 6 -1 7 11 5 20 -10 36 -11 12
-17 24 -12 27 5 3 17 -5 28 -19 17 -23 19 -23 42 -9 18 12 24 13 22 3 -1 -7
-1 -20 0 -28 1 -12 4 -12 12 3 5 9 15 17 21 17 7 0 6 -6 -2 -15 -7 -9 -10 -18
-7 -22 4 -3 9 1 13 10 4 10 14 14 32 11 34 -7 38 -12 24 -26 -7 -7 -12 -16
-12 -22 0 -5 6 -2 13 9 13 17 14 17 29 -4 13 -19 16 -20 22 -6 8 21 -2 38 -19
31 -7 -2 -16 2 -19 10 -8 20 33 12 49 -10 8 -10 19 -14 30 -10 16 7 16 5 -1
-22 -15 -24 -16 -27 -2 -16 10 8 19 9 22 3 3 -5 0 -12 -6 -14 -9 -4 -10 -6 -1
-6 16 -1 26 16 13 24 -5 3 -10 11 -10 17 0 6 10 2 23 -10 13 -12 27 -22 32
-22 5 0 0 7 -11 16 -15 12 -16 15 -2 10 9 -3 18 0 21 7 5 17 -50 70 -64 61 -7
-4 -9 -3 -6 3 3 5 0 10 -8 10 -10 0 -12 -4 -5 -12 12 -15 2 -47 -12 -39 -6 4
-5 10 3 15 11 6 10 12 -5 27 -12 14 -14 22 -6 27 6 4 8 15 5 26 -4 11 -2 19 5
19 6 0 8 -5 4 -12 -4 -7 -3 -8 4 -4 8 5 10 2 6 -8 -4 -11 0 -14 16 -11 12 2
23 -2 26 -10 4 -10 11 -12 23 -6 13 7 17 5 18 -10 1 -10 -2 -21 -8 -24 -5 -3
-6 1 -3 9 3 9 2 16 -3 16 -5 0 -9 -9 -10 -20 -2 -22 7 -26 24 -9 8 8 13 7 18
-2 6 -8 4 -10 -6 -5 -8 4 -5 0 6 -10 14 -11 15 -15 4 -11 -12 4 -15 -1 -14
-24 1 -16 5 -32 10 -37 4 -4 4 4 0 18 -4 14 -4 22 0 18 5 -4 14 -3 22 3 17 14
17 -3 1 -20 -11 -10 -9 -15 6 -27 11 -8 25 -14 30 -13 6 0 1 5 -11 11 -13 6
-23 15 -23 20 0 5 10 4 21 -3 15 -8 19 -8 15 0 -4 6 -2 11 3 11 6 0 10 6 8 13
-1 6 6 11 15 11 9 -1 19 5 22 12 6 16 -3 18 -24 4 -19 -12 -41 6 -33 27 5 12
2 15 -10 10 -9 -3 -19 -2 -22 4 -4 5 -11 7 -16 4 -5 -4 -10 -1 -10 4 -1 6 -2
17 -3 24 -1 6 -9 11 -19 11 -9 -1 -17 2 -17 7 0 5 -3 8 -7 8 -22 -4 -33 2 -27
14 4 6 4 9 -1 5 -12 -11 -36 12 -28 26 4 6 -2 4 -12 -4 -10 -8 -16 -10 -12 -4
4 7 0 17 -7 23 -11 10 -17 8 -26 -6 -11 -17 -11 -17 -6 1 9 25 -23 49 -43 33
-12 -10 -14 -9 -9 5 8 21 -2 31 -18 17 -9 -8 -15 -5 -23 9 -6 11 -7 22 -3 26
3 4 -1 4 -11 0 -9 -3 -17 -10 -17 -16 0 -5 5 -6 10 -3 6 3 10 2 10 -4 0 -18
-20 -23 -26 -7 -3 9 -10 13 -15 11 -4 -3 -14 3 -20 14 -10 16 -15 17 -26 6
-15 -16 -17 -29 -3 -20 6 3 10 2 10 -4 0 -21 -22 -22 -27 -1 -3 12 -11 19 -19
16 -7 -3 -16 -1 -19 4 -3 4 0 10 7 12 8 3 8 9 -1 24 -8 12 -11 13 -8 3 7 -21
-11 -39 -29 -32 -12 5 -16 -2 -13 -23 1 -10 -24 -23 -33 -18 -4 3 -8 10 -8 15
0 6 6 7 13 3 7 -5 6 0 -3 11 -14 17 -13 18 2 12 13 -4 15 -2 11 10 -4 11 -2
14 5 9 8 -5 10 -2 6 8 -5 13 -9 12 -25 -7 -10 -12 -18 -18 -19 -13 0 5 -7 3
-15 -4 -9 -8 -15 -9 -15 -2 0 6 5 14 10 17 6 4 8 11 5 16 -4 5 -2 9 4 9 5 0
12 -5 14 -10 3 -6 4 -5 3 2 -3 17 -31 17 -31 0 0 -13 -23 -32 -40 -32 -5 1 -2
7 8 14 16 12 13 14 -25 12 -24 0 -42 -3 -41 -6 14 -39 16 -40 30 -29 11 10 17
9 30 -3 14 -15 13 -16 -8 -15 -13 0 -31 -3 -41 -7 -12 -5 -16 -3 -15 10 2 14
-6 18 -35 18 -28 0 -37 4 -35 14 1 8 -3 17 -9 19 -7 2 -10 -14 -10 -44 1 -38
-3 -48 -17 -51 -25 -5 -46 15 -40 39 6 21 24 21 31 -1 3 -7 0 -10 -7 -6 -6 4
-11 3 -11 -2 0 -6 6 -12 13 -15 10 -4 13 7 13 38 0 26 -4 41 -10 38 -5 -4 -7
1 -3 11 4 10 3 15 -3 11 -13 -8 -13 -35 0 -35 6 0 10 -4 10 -8 0 -4 -9 -8 -20
-8 -15 0 -19 6 -15 23 2 13 -1 23 -6 23 -5 0 -9 -5 -9 -12 0 -6 -10 -3 -22 8
-12 10 -18 14 -15 7z m243 -35 c-12 -7 -21 -7 -28 0 -6 6 0 10 18 10 23 0 24
-2 10 -10z m71 -17 c8 8 13 8 17 0 4 -6 2 -11 -5 -11 -8 0 -6 -7 5 -19 14 -15
23 -18 42 -11 19 8 26 5 34 -10 14 -27 13 -29 -17 -24 -16 3 -33 5 -40 6 -7 1
-9 6 -6 11 4 6 1 7 -7 2 -9 -6 -11 -4 -5 6 5 8 4 11 -1 6 -5 -5 -9 -14 -9 -19
0 -6 -5 -13 -12 -15 -15 -5 -10 26 6 37 18 10 -2 22 -24 14 -13 -5 -14 -8 -3
-15 23 -15 -6 -9 -32 6 l-25 15 25 -3 c20 -2 24 2 22 17 -3 16 -1 18 10 8 10
-8 18 -8 25 -1z m-139 -15 c7 -4 12 -2 12 5 0 7 3 9 6 6 4 -4 -1 -18 -10 -32
-15 -23 -18 -24 -32 -10 -9 8 -19 13 -24 10 -5 -3 -8 3 -7 14 1 19 30 23 55 7z
m242 1 c0 -5 7 -6 16 -3 8 3 13 2 10 -2 -3 -4 4 -13 14 -20 14 -9 21 -8 30 3
6 8 8 19 4 26 -4 6 7 1 25 -12 17 -12 31 -27 31 -33 0 -5 6 -1 14 10 14 18 15
18 21 1 7 -17 8 -17 22 0 8 10 12 12 8 6 -10 -20 4 -36 20 -23 14 12 29 -2 30
-27 0 -7 3 -13 8 -13 4 0 12 0 18 0 5 0 7 5 3 12 -4 7 -3 8 5 4 6 -4 9 -11 6
-16 -3 -5 -1 -19 5 -30 8 -15 8 -25 1 -34 -8 -10 -7 -17 4 -26 17 -14 10 -34
-8 -23 -7 4 -30 8 -52 8 -22 0 -46 4 -53 9 -7 4 -18 3 -25 -2 -9 -8 -12 -4
-13 14 -1 13 2 24 8 24 5 0 6 -6 2 -12 -4 -7 -4 -10 1 -6 4 4 15 2 23 -5 11
-8 14 -8 9 0 -4 6 -3 14 2 17 5 3 11 -1 15 -9 7 -19 33 -9 33 12 0 13 -2 13
-14 -3 -7 -10 -13 -13 -13 -8 0 6 6 16 13 24 9 11 8 11 -7 0 -18 -13 -19 -13
-11 0 4 8 5 12 0 8 -4 -4 -15 -2 -23 5 -9 7 -13 7 -9 1 12 -20 -32 -10 -47 11
-12 16 -17 17 -27 8 -14 -14 -20 -55 -7 -47 4 3 8 0 8 -5 0 -6 5 -11 11 -11 8
0 7 5 -1 15 -7 9 -11 18 -8 20 3 3 11 -2 19 -11 11 -14 11 -18 -6 -30 -16 -12
-20 -11 -34 9 -9 12 -16 26 -17 32 -3 25 -5 27 -19 15 -8 -7 -15 -11 -16 -9
-6 31 -6 38 2 34 5 -4 6 2 3 12 -3 10 -2 14 3 8 11 -13 54 -15 46 -2 -4 6 -1
7 8 2 11 -7 11 -5 -1 10 -8 10 -10 16 -4 12 7 -4 18 1 25 11 7 9 9 14 5 10 -5
-4 -15 -3 -23 4 -11 9 -13 8 -11 -3 2 -8 -3 -13 -9 -11 -7 1 -12 -3 -10 -9 1
-6 -4 -14 -12 -17 -8 -2 -11 0 -8 5 3 5 2 15 -3 23 -8 13 -11 13 -22 1 -9 -9
-9 -12 -1 -7 8 4 10 0 7 -14 -2 -11 -6 -30 -9 -42 -7 -32 -24 -46 -34 -29 -5
8 -7 19 -5 26 3 6 -1 12 -8 13 -7 0 -25 3 -41 6 l-27 6 22 -25 c21 -25 34 -34
23 -16 -3 5 -1 12 4 15 5 3 11 -1 15 -9 7 -20 -10 -28 -32 -16 -11 6 -23 7
-27 3 -4 -4 -5 2 -3 13 2 17 -2 20 -30 18 -29 -2 -32 0 -21 13 7 8 19 12 27 9
7 -3 19 -2 25 2 19 12 37 12 37 2 0 -6 5 -7 10 -4 6 3 10 1 10 -5 0 -6 5 -8
13 -3 6 4 18 8 25 9 24 4 23 11 -6 42 -16 17 -28 33 -26 35 8 8 34 3 34 -6z
m-130 -47 c15 -10 14 -11 -28 -15 -18 -2 -20 0 -11 11 13 16 19 17 39 4z m259
-82 c13 -22 13 -23 -6 -5 -11 9 -23 14 -28 10 -4 -5 -5 -2 -1 5 10 18 19 15
35 -10z m61 -14 c0 -8 -19 -13 -24 -6 -3 5 1 9 9 9 8 0 15 -2 15 -3z m186 -70
c14 -15 19 -24 10 -21 -9 4 -16 1 -16 -5 0 -6 -9 -3 -19 6 -11 10 -17 24 -14
32 7 19 8 18 39 -12z m88 13 c4 4 4 0 1 -9 -4 -9 0 -18 9 -21 17 -7 11 -37 -6
-37 -7 0 -6 5 1 14 9 10 8 15 -3 19 -7 3 -19 1 -25 -4 -8 -6 -8 -5 -1 3 6 7 5
19 -2 32 -10 18 -9 19 4 9 8 -7 18 -10 22 -6z m-184 -37 c0 -5 -2 -10 -4 -10
-3 0 -8 5 -11 10 -3 6 -1 10 4 10 6 0 11 -4 11 -10z"/>
<path d="M5180 962 c0 -6 -8 -9 -17 -6 -15 5 -16 4 -3 -5 16 -11 40 3 27 16
-4 3 -7 1 -7 -5z"/>
<path d="M5358 958 c-3 -7 -13 -13 -24 -13 -10 0 -19 -4 -19 -10 0 -20 -16
-34 -35 -30 -10 2 -25 -4 -32 -13 -11 -15 -11 -16 4 -4 12 9 18 10 23 2 5 -8
13 -6 27 7 19 17 20 17 39 -6 15 -18 22 -21 33 -12 9 7 17 8 20 2 3 -5 14 -8
24 -6 22 3 44 -14 35 -28 -3 -6 -1 -7 5 -3 7 4 12 3 12 -2 0 -5 -10 -14 -22
-20 -21 -9 -21 -10 7 -7 17 1 37 -2 45 -9 10 -7 9 -3 -2 10 -13 14 -15 23 -7
31 11 11 -4 54 -19 51 -4 -1 -15 2 -25 7 -13 5 -15 11 -7 20 7 9 7 15 1 19 -5
4 -13 2 -16 -4 -5 -8 -11 -7 -21 1 -8 6 -14 8 -14 3 0 -5 -7 -1 -14 9 -10 13
-15 15 -18 5z m32 -22 c0 4 5 3 12 -4 9 -9 15 -9 27 1 14 10 14 10 4 -3 -9
-12 -7 -19 13 -37 13 -12 24 -16 24 -10 0 7 5 4 11 -6 16 -28 0 -35 -21 -10
-11 14 -26 21 -39 18 -11 -2 -23 1 -27 6 -4 7 -10 6 -18 0 -9 -8 -17 -6 -28 7
-25 29 -30 42 -15 36 8 -3 18 0 22 6 5 8 11 8 21 -1 8 -6 14 -8 14 -3z"/>
<path d="M5351 926 c-9 -10 -8 -16 3 -25 10 -8 16 -9 21 -1 3 6 12 7 18 3 26
-16 39 -12 21 8 -9 10 -19 17 -22 14 -3 -3 -11 0 -17 5 -9 7 -16 6 -24 -4z
m23 -17 c-3 -5 -10 -7 -15 -3 -5 3 -7 10 -3 15 3 5 10 7 15 3 5 -3 7 -10 3
-15z"/>
<path d="M5195 899 c1 -10 4 -21 8 -24 4 -3 5 -2 2 1 -2 4 0 14 5 24 6 12 5
17 -4 17 -7 0 -12 -8 -11 -18z"/>
<path d="M5550 786 c0 -2 7 -7 16 -10 8 -3 12 -2 9 4 -6 10 -25 14 -25 6z"/>
<path d="M5230 1059 c0 -5 5 -7 10 -4 6 3 10 8 10 11 0 2 -4 4 -10 4 -5 0 -10
-5 -10 -11z"/>
<path d="M5268 1063 c7 -3 16 -2 19 1 4 3 -2 6 -13 5 -11 0 -14 -3 -6 -6z"/>
<path d="M742 1051 c-11 -6 -10 -10 4 -15 20 -8 32 0 18 14 -5 5 -15 5 -22 1z"/>
<path d="M1305 1041 c-3 -8 -3 -12 1 -8 4 4 13 2 21 -5 11 -9 8 -16 -19 -41
-18 -16 -25 -24 -15 -17 14 10 17 10 17 -4 0 -9 4 -16 8 -16 5 0 9 7 9 15 0 8
-5 15 -10 15 -6 0 -8 2 -5 5 10 11 37 -7 31 -21 -3 -8 0 -14 7 -14 6 0 9 4 5
9 -3 5 -2 12 3 14 4 3 13 -6 19 -19 11 -23 10 -24 -10 -18 -18 5 -17 2 8 -20
17 -14 31 -30 31 -36 1 -5 2 -15 3 -21 1 -8 5 -8 15 0 10 8 16 9 21 1 3 -5 2
-10 -2 -10 -16 0 -12 -38 5 -52 11 -9 14 -10 8 0 -4 6 -2 12 3 12 6 0 11 -7
11 -15 0 -17 16 -20 25 -5 4 6 11 8 16 4 5 -3 16 0 24 6 13 10 11 15 -12 34
-15 11 -34 20 -43 18 -8 -1 -5 4 8 11 21 12 22 15 8 27 -13 10 -14 15 -4 28
11 13 10 15 -3 10 -19 -7 -64 34 -52 46 4 4 -1 4 -11 0 -13 -5 -17 -4 -13 3 4
6 0 16 -9 23 -8 7 -12 20 -9 29 3 8 3 12 -1 9 -4 -4 -16 -2 -28 5 -31 17 -54
17 -61 -2z m99 -60 c-2 -2 1 -10 7 -17 7 -8 7 -14 -1 -19 -16 -10 -31 5 -25
25 5 15 2 18 -14 15 -12 -2 -21 1 -21 6 0 6 -6 7 -12 3 -10 -6 -10 -4 0 8 9
11 10 18 2 23 -6 3 -7 11 -4 17 4 6 20 -3 39 -23 18 -19 31 -36 29 -38z m86
-106 c0 -5 -5 -3 -10 5 -9 13 -14 7 -11 -12 2 -11 -17 -10 -24 2 -3 5 -13 6
-22 3 -10 -4 -14 -2 -10 4 4 6 0 16 -8 23 -20 17 -19 25 8 38 19 9 26 6 49
-21 15 -18 28 -36 28 -42z m25 -45 c14 -12 13 -25 -3 -25 -4 0 -12 -4 -18 -8
-7 -4 -15 0 -18 9 -4 9 -13 14 -21 10 -17 -6 -18 -4 -9 17 7 18 46 16 69 -3z"/>
<path d="M1348 1029 c6 -9 8 -20 4 -24 -4 -5 -2 -5 5 -2 6 4 14 1 16 -5 3 -8
6 -8 6 -2 1 6 -9 19 -21 30 -14 12 -18 13 -10 3z"/>
<path d="M1431 935 c3 -21 -2 -29 -10 -16 -5 7 -11 9 -14 4 -3 -5 7 -17 23
-26 35 -21 45 -10 19 23 -11 14 -19 21 -18 15z m24 -35 c3 -6 -1 -7 -9 -4 -18
7 -21 14 -7 14 6 0 13 -4 16 -10z"/>
<path d="M1468 828 c5 -5 19 -11 32 -13 18 -3 21 -2 12 7 -6 6 -21 12 -32 13
-12 1 -17 -2 -12 -7z"/>
<path d="M5185 1040 c-3 -5 -1 -10 4 -10 6 0 11 5 11 10 0 6 -2 10 -4 10 -3 0
-8 -4 -11 -10z"/>
<path d="M5250 1035 c0 -8 4 -15 10 -15 5 0 7 7 4 15 -4 8 -8 15 -10 15 -2 0
-4 -7 -4 -15z"/>
<path d="M5303 1028 c13 -20 29 -19 35 3 3 11 2 11 -7 -1 -9 -13 -15 -8 -13
11 1 3 -5 6 -13 6 -10 0 -11 -4 -2 -19z"/>
<path d="M673 1025 c0 -8 4 -12 9 -9 5 3 6 10 3 15 -9 13 -12 11 -12 -6z"/>
<path d="M706 1021 c-4 -5 3 -7 14 -4 23 6 26 13 6 13 -8 0 -17 -4 -20 -9z"/>
<path d="M4706 1015 c-3 -9 -4 -21 0 -26 3 -5 7 -19 9 -30 3 -12 7 -24 10 -28
7 -6 1 33 -10 64 -6 17 -3 16 15 -5 16 -19 20 -20 16 -6 -5 13 -2 17 9 12 8
-3 15 0 15 5 0 6 -9 9 -20 6 -12 -3 -23 1 -29 10 -7 13 -9 13 -15 -2z"/>
<path d="M4780 1018 c0 -4 7 -8 15 -8 8 0 15 4 15 8 0 5 -7 9 -15 9 -8 0 -15
-4 -15 -9z"/>
<path d="M779 993 c-13 -16 -12 -17 4 -4 9 7 17 15 17 17 0 8 -8 3 -21 -13z"/>
<path d="M810 999 c0 -5 4 -8 9 -5 5 3 14 -1 21 -9 7 -8 17 -15 23 -15 5 0 -2
9 -16 20 -28 23 -37 25 -37 9z"/>
<path d="M865 1000 c-3 -6 1 -7 9 -4 18 7 21 14 7 14 -6 0 -13 -4 -16 -10z"/>
<path d="M1110 990 c0 -5 5 -10 10 -10 6 0 10 5 10 10 0 6 -4 10 -10 10 -5 0
-10 -4 -10 -10z"/>
<path d="M4782 984 c-12 -8 -21 -23 -21 -32 1 -16 2 -16 6 0 2 9 13 20 24 23
10 4 19 11 19 16 0 12 -2 12 -28 -7z"/>
<path d="M876 953 c-6 -14 -5 -15 5 -6 7 7 10 15 7 18 -3 3 -9 -2 -12 -12z"/>
<path d="M990 960 c0 -5 5 -10 11 -10 5 0 7 5 4 10 -3 6 -8 10 -11 10 -2 0 -4
-4 -4 -10z"/>
<path d="M1079 953 c-12 -16 -12 -17 2 -6 9 7 19 10 22 6 4 -3 7 -1 7 5 0 17
-16 15 -31 -5z"/>
<path d="M1126 962 c-3 -5 1 -9 9 -9 8 0 15 4 15 9 0 4 -4 8 -9 8 -6 0 -12 -4
-15 -8z"/>
<path d="M1245 960 c-3 -6 1 -7 9 -4 18 7 21 14 7 14 -6 0 -13 -4 -16 -10z"/>
<path d="M4581 957 c-6 -6 -11 -16 -11 -21 0 -6 7 -2 16 9 12 16 16 17 24 6 4
-8 16 -16 24 -17 9 -1 14 2 10 7 -3 5 -10 7 -15 4 -5 -4 -9 -2 -9 4 0 5 6 11
13 14 6 2 0 4 -15 4 -14 0 -31 -4 -37 -10z"/>
<path d="M4790 950 c0 -5 7 -10 16 -10 9 0 12 -5 8 -12 -4 -7 -3 -8 4 -4 16
10 15 14 -8 26 -14 7 -20 7 -20 0z"/>
<path d="M1295 940 c5 -9 -14 -15 -37 -11 -9 1 -4 -27 7 -36 4 -4 5 -2 1 5 -5
8 2 16 19 22 14 5 23 14 20 20 -3 5 -8 10 -11 10 -3 0 -2 -4 1 -10z"/>
<path d="M4697 933 c6 -16 5 -16 -10 -4 -10 8 -19 12 -21 10 -2 -2 6 -11 18
-20 21 -16 22 -16 23 2 1 10 -2 21 -8 24 -5 4 -6 -2 -2 -12z"/>
<path d="M1176 927 c3 -10 9 -15 12 -12 3 3 0 11 -7 18 -10 9 -11 8 -5 -6z"/>
<path d="M1319 917 c-16 -22 -16 -23 4 -25 17 -1 19 1 7 8 -13 9 -7 14 12 11
4 0 5 6 2 14 -7 18 -6 19 -25 -8z"/>
<path d="M4837 926 c-4 -9 -3 -15 2 -11 5 3 11 0 13 -7 3 -7 7 -5 11 6 4 9 3
15 -2 11 -5 -3 -11 0 -13 7 -3 7 -7 5 -11 -6z"/>
<path d="M4554 923 c3 -6 0 -13 -6 -16 -7 -2 -11 -7 -8 -10 3 -3 12 -2 20 3
13 8 13 11 1 22 -8 8 -11 8 -7 1z"/>
<path d="M4595 920 c3 -5 8 -10 11 -10 2 0 4 5 4 10 0 6 -5 10 -11 10 -5 0 -7
-4 -4 -10z"/>
<path d="M4736 914 c-5 -14 -4 -15 9 -4 17 14 19 20 6 20 -5 0 -12 -7 -15 -16z"/>
<path d="M4630 910 c0 -6 7 -10 15 -10 8 0 15 2 15 4 0 2 -7 6 -15 10 -8 3
-15 1 -15 -4z"/>
<path d="M4788 903 c7 -3 16 -2 19 1 4 3 -2 6 -13 5 -11 0 -14 -3 -6 -6z"/>
<path d="M4916 893 c-6 -14 -5 -15 5 -6 7 7 10 15 7 18 -3 3 -9 -2 -12 -12z"/>
<path d="M1355 890 c3 -5 8 -10 11 -10 2 0 4 5 4 10 0 6 -5 10 -11 10 -5 0 -7
-4 -4 -10z"/>
<path d="M4595 890 c-3 -6 1 -7 9 -4 18 7 21 14 7 14 -6 0 -13 -4 -16 -10z"/>
<path d="M4815 890 c-4 -6 -11 -7 -17 -4 -7 4 -8 2 -4 -5 6 -9 11 -9 22 0 14
11 18 19 10 19 -3 0 -8 -5 -11 -10z"/>
<path d="M4850 881 c0 -6 4 -13 10 -16 6 -3 7 1 4 9 -7 18 -14 21 -14 7z"/>
<path d="M4935 881 c-3 -5 0 -13 6 -17 7 -4 9 -3 5 4 -3 6 3 12 16 15 23 4 23
4 1 6 -12 0 -24 -3 -28 -8z"/>
<path d="M4556 868 c5 -8 2 -9 -9 -5 -24 9 -21 0 4 -14 13 -6 19 -7 15 -1 -3
6 -1 12 6 14 7 3 5 7 -6 11 -11 5 -15 3 -10 -5z"/>
<path d="M4695 860 c3 -5 8 -10 11 -10 2 0 4 5 4 10 0 6 -5 10 -11 10 -5 0 -7
-4 -4 -10z"/>
<path d="M4910 861 c0 -6 4 -13 10 -16 6 -3 7 1 4 9 -7 18 -14 21 -14 7z"/>
<path d="M4966 858 c3 -5 10 -6 15 -3 13 9 11 12 -6 12 -8 0 -12 -4 -9 -9z"/>
<path d="M1397 839 c7 -7 15 -10 18 -7 3 3 -2 9 -12 12 -14 6 -15 5 -6 -5z"/>
<path d="M4510 840 c-13 -8 -12 -10 3 -10 9 0 17 5 17 10 0 12 -1 12 -20 0z"/>
<path d="M5030 842 c0 -5 7 -9 15 -9 8 0 12 4 9 9 -3 4 -9 8 -15 8 -5 0 -9 -4
-9 -8z"/>
<path d="M5112 834 c-7 -8 -8 -14 -3 -14 10 0 25 19 20 25 -2 1 -10 -3 -17
-11z"/>
<path d="M5514 839 c-2 -4 4 -6 13 -4 10 1 28 -4 41 -12 21 -13 22 -13 11 5
-11 17 -56 25 -65 11z"/>
<path d="M1389 817 c7 -9 10 -25 7 -34 -6 -17 -5 -17 7 -1 8 10 17 15 20 11 4
-3 7 -4 7 -1 0 3 -12 14 -27 24 -24 15 -26 15 -14 1z"/>
<path d="M4547 819 c7 -7 15 -10 18 -7 3 3 -2 9 -12 12 -14 6 -15 5 -6 -5z"/>
<path d="M4890 825 c0 -7 30 -13 34 -7 3 4 -4 9 -15 9 -10 1 -19 0 -19 -2z"/>
<path d="M4986 818 c3 -4 9 -8 15 -8 5 0 9 4 9 8 0 5 -7 9 -15 9 -8 0 -12 -4
-9 -9z"/>
<path d="M5140 826 c0 -2 7 -6 15 -10 8 -3 15 -1 15 4 0 6 -7 10 -15 10 -8 0
-15 -2 -15 -4z"/>
<path d="M4490 811 c0 -6 4 -13 10 -16 6 -3 7 1 4 9 -7 18 -14 21 -14 7z"/>
<path d="M5050 817 c0 -2 6 -10 14 -16 11 -9 16 -9 22 1 4 7 4 10 -1 6 -4 -4
-14 -3 -22 3 -7 6 -13 9 -13 6z"/>
<path d="M4462 794 c-7 -8 -10 -18 -7 -23 3 -5 -2 -12 -10 -14 -11 -4 -10 -4
2 -3 10 1 19 7 19 14 3 25 5 27 14 12 5 -8 10 -10 10 -5 0 23 -15 33 -28 19z"/>
<path d="M4526 802 c-3 -5 1 -9 9 -9 8 0 12 4 9 9 -3 4 -7 8 -9 8 -2 0 -6 -4
-9 -8z"/>
<path d="M5097 795 c-4 -8 -3 -16 1 -19 4 -3 9 4 9 15 2 23 -3 25 -10 4z"/>
<path d="M5215 800 c-4 -6 1 -7 12 -3 16 6 17 5 3 -12 -14 -17 -14 -17 7 -4
16 9 19 16 10 21 -16 10 -25 10 -32 -2z"/>
<path d="M5320 790 c0 -5 -5 -9 -11 -7 -6 1 -14 -5 -16 -13 -4 -12 -3 -12 5
-2 5 8 13 13 18 12 5 -1 10 3 12 9 2 6 1 11 -2 11 -3 0 -6 -4 -6 -10z"/>
<path d="M5187 779 c7 -7 15 -10 18 -7 3 3 -2 9 -12 12 -14 6 -15 5 -6 -5z"/>
<path d="M1428 773 c6 -2 18 -2 25 0 6 3 1 5 -13 5 -14 0 -19 -2 -12 -5z"/>
<path d="M5400 770 c-8 -5 -12 -11 -10 -14 3 -2 14 2 24 10 22 15 10 19 -14 4z"/>
<path d="M5135 759 c-3 -4 2 -6 10 -5 21 3 28 13 10 13 -9 0 -18 -4 -20 -8z"/>
<path d="M4479 758 c-6 -20 -6 -39 0 -42 4 -3 7 6 7 20 0 20 -4 32 -7 22z"/>
<path d="M5352 751 c-11 -6 -9 -9 6 -13 15 -4 19 -2 15 8 -6 16 -4 16 -21 5z"/>
<path d="M1460 746 c0 -2 7 -6 15 -10 8 -3 15 -1 15 4 0 6 -7 10 -15 10 -8 0
-15 -2 -15 -4z"/>
<path d="M1586 738 c3 -5 10 -6 15 -3 13 9 11 12 -6 12 -8 0 -12 -4 -9 -9z"/>
<path d="M4506 742 c-3 -5 1 -9 9 -9 8 0 12 4 9 9 -3 4 -7 8 -9 8 -2 0 -6 -4
-9 -8z"/>
<path d="M5454 742 c3 -5 0 -13 -6 -15 -9 -4 -10 -6 -1 -6 17 -1 25 16 12 25
-7 4 -9 3 -5 -4z"/>
<path d="M4431 722 c-1 -15 -5 -21 -13 -16 -7 5 -8 3 -3 -5 10 -18 28 2 22 25
-4 15 -5 14 -6 -4z"/>
<path d="M5390 737 c0 -2 6 -10 14 -16 11 -9 16 -9 22 1 4 7 4 10 -1 6 -4 -4
-14 -3 -22 3 -7 6 -13 9 -13 6z"/>
<path d="M1415 720 c3 -5 8 -10 11 -10 2 0 4 5 4 10 0 6 -5 10 -11 10 -5 0 -7
-4 -4 -10z"/>
<path d="M1450 719 c0 -5 5 -7 10 -4 6 3 10 8 10 11 0 2 -4 4 -10 4 -5 0 -10
-5 -10 -11z"/>
<path d="M4254 710 c0 -11 6 -20 11 -20 14 0 13 32 -1 37 -6 2 -11 -5 -10 -17z"/>
<path d="M5469 703 c-13 -16 -12 -17 4 -4 9 7 17 15 17 17 0 8 -8 3 -21 -13z"/>
<path d="M1473 690 c-1 -11 1 -22 5 -24 4 -2 8 7 8 20 1 13 -1 24 -5 24 -4 0
-7 -9 -8 -20z"/>
<path d="M1749 676 c-15 -32 -33 -33 -53 -4 -13 19 -18 20 -28 9 -8 -9 -9 -12
-1 -7 6 3 21 -5 32 -20 11 -14 25 -23 30 -20 5 4 12 2 16 -4 4 -6 11 -8 16 -4
5 3 16 0 24 -6 8 -7 15 -9 15 -5 0 4 6 2 14 -4 11 -9 16 -9 22 1 4 7 4 10 0 7
-10 -9 -59 38 -52 49 3 6 -1 15 -9 22 -12 10 -17 7 -26 -14z m17 -18 c-1 -13
-6 -22 -9 -20 -7 2 -7 10 0 30 8 20 13 14 9 -10z"/>
<path d="M4189 677 c-6 -14 -17 -23 -24 -21 -6 3 -18 -2 -25 -10 -7 -9 -16
-14 -20 -11 -4 3 -15 -7 -25 -21 -9 -14 -19 -23 -22 -20 -8 7 -43 -23 -43 -36
0 -5 6 -8 13 -5 6 2 12 10 12 18 0 8 10 14 22 14 12 0 36 15 54 32 17 18 35
31 39 28 5 -3 11 -1 15 5 4 6 10 8 15 5 12 -7 22 27 11 38 -7 7 -14 1 -22 -16z
m-69 -61 c0 -2 -8 -10 -17 -17 -16 -13 -17 -12 -4 4 13 16 21 21 21 13z"/>
<path d="M5630 696 c0 -2 6 -9 14 -15 11 -9 16 -9 22 0 4 8 3 9 -4 5 -7 -4
-12 -2 -12 3 0 6 -4 11 -10 11 -5 0 -10 -2 -10 -4z"/>
<path d="M1507 667 c-3 -8 1 -14 8 -14 7 0 11 6 8 14 -3 7 -6 13 -8 13 -2 0
-5 -6 -8 -13z"/>
<path d="M4356 653 c-6 -14 -5 -15 5 -6 7 7 10 15 7 18 -3 3 -9 -2 -12 -12z"/>
<path d="M5678 663 c7 -3 16 -2 19 1 4 3 -2 6 -13 5 -11 0 -14 -3 -6 -6z"/>
<path d="M5781 643 c7 -10 15 -20 16 -22 2 -2 3 3 3 11 0 9 -7 19 -16 22 -15
6 -15 4 -3 -11z"/>
<path d="M1425 640 c-3 -6 1 -7 9 -4 18 7 21 14 7 14 -6 0 -13 -4 -16 -10z"/>
<path d="M5697 635 c-4 -8 -3 -16 1 -19 4 -3 9 4 9 15 2 23 -3 25 -10 4z"/>
<path d="M5846 635 c4 -8 8 -15 10 -15 2 0 4 7 4 15 0 8 -4 15 -10 15 -5 0 -7
-7 -4 -15z"/>
<path d="M1495 620 c-3 -5 -1 -10 4 -10 6 0 11 5 11 10 0 6 -2 10 -4 10 -3 0
-8 -4 -11 -10z"/>
<path d="M1548 616 c4 -6 7 -14 7 -18 0 -19 11 -14 11 6 0 12 -6 23 -13 23 -6
0 -9 -5 -5 -11z"/>
<path d="M4356 613 c-6 -14 -5 -15 5 -6 7 7 10 15 7 18 -3 3 -9 -2 -12 -12z"/>
<path d="M5630 626 c0 -2 7 -7 16 -10 8 -3 12 -2 9 4 -6 10 -25 14 -25 6z"/>
<path d="M5949 603 c-13 -16 -12 -17 4 -4 9 7 17 15 17 17 0 8 -8 3 -21 -13z"/>
<path d="M5875 600 c3 -5 8 -10 11 -10 2 0 4 5 4 10 0 6 -5 10 -11 10 -5 0 -7
-4 -4 -10z"/>
<path d="M5900 606 c0 -2 8 -10 18 -17 15 -13 16 -12 3 4 -13 16 -21 21 -21
13z"/>
<path d="M1596 578 c3 -5 10 -6 15 -3 13 9 11 12 -6 12 -8 0 -12 -4 -9 -9z"/>
<path d="M1630 580 c0 -5 5 -10 10 -10 6 0 10 5 10 10 0 6 -4 10 -10 10 -5 0
-10 -4 -10 -10z"/>
<path d="M4220 579 c0 -5 5 -7 10 -4 6 3 10 8 10 11 0 2 -4 4 -10 4 -5 0 -10
-5 -10 -11z"/>
<path d="M5775 581 c-3 -5 -2 -12 3 -15 5 -3 9 1 9 9 0 17 -3 19 -12 6z"/>
<path d="M6015 581 c-3 -5 -2 -12 3 -15 5 -3 9 1 9 9 0 17 -3 19 -12 6z"/>
<path d="M5829 563 c-13 -16 -12 -17 4 -4 9 7 17 15 17 17 0 8 -8 3 -21 -13z"/>
<path d="M1940 562 c0 -5 7 -9 15 -9 8 0 12 4 9 9 -3 4 -9 8 -15 8 -5 0 -9 -4
-9 -8z"/>
<path d="M4246 558 c3 -5 9 -7 12 -4 3 3 12 0 21 -6 13 -10 14 -10 4 2 -15 16
-46 23 -37 8z"/>
<path d="M5866 562 c-3 -5 1 -9 9 -9 8 0 12 4 9 9 -3 4 -7 8 -9 8 -2 0 -6 -4
-9 -8z"/>
<path d="M5940 566 c0 -2 8 -10 18 -17 15 -13 16 -12 3 4 -13 16 -21 21 -21
13z"/>
<path d="M2025 540 c-4 -6 -3 -10 2 -9 4 1 10 0 13 -1 16 -6 41 -7 35 -2 -4 4
-10 7 -13 7 -4 0 -12 4 -19 8 -6 4 -15 3 -18 -3z"/>
<path d="M4150 540 c0 -5 5 -10 10 -10 6 0 10 5 10 10 0 6 -4 10 -10 10 -5 0
-10 -4 -10 -10z"/>
<path d="M1716 521 c9 -9 34 -9 34 -1 0 5 -9 8 -20 7 -10 -1 -17 -3 -14 -6z"/>
<path d="M1790 522 c0 -5 7 -9 15 -9 8 0 15 4 15 9 0 4 -7 8 -15 8 -8 0 -15
-4 -15 -8z"/>
<path d="M4176 522 c-3 -5 1 -9 9 -9 8 0 12 4 9 9 -3 4 -7 8 -9 8 -2 0 -6 -4
-9 -8z"/>
<path d="M4250 519 c0 -5 5 -7 10 -4 6 3 10 8 10 11 0 2 -4 4 -10 4 -5 0 -10
-5 -10 -11z"/>
<path d="M2148 507 c7 -8 9 -17 5 -20 -3 -4 0 -13 7 -22 10 -12 10 -18 -1 -32
-11 -15 -11 -16 0 -6 7 6 19 10 25 9 6 -2 7 -1 3 2 -4 2 -1 15 8 28 15 23 10
30 -17 25 -5 0 -8 3 -8 8 0 5 -7 12 -16 15 -13 5 -14 4 -6 -7z m34 -26 c8 11
9 11 6 1 -4 -16 -22 -18 -24 -2 -2 7 -1 6 3 -1 4 -8 8 -7 15 2z"/>
<path d="M4104 504 c-18 -14 -18 -15 4 -4 12 6 28 8 34 4 7 -4 8 -3 4 4 -10
16 -18 15 -42 -4z"/>
<path d="M1785 480 c10 -11 20 -20 23 -20 3 0 -3 9 -13 20 -10 11 -20 20 -23
20 -3 0 3 -9 13 -20z"/>
<path d="M2402 482 c9 -10 13 -11 19 0 7 10 9 9 9 -3 0 -9 7 -19 15 -23 13 -5
13 -2 -1 19 -8 13 -24 23 -34 22 -15 -1 -16 -4 -8 -15z"/>
<path d="M2950 485 c-7 -9 -19 -14 -26 -11 -8 3 -17 -2 -22 -11 -8 -14 -12
-14 -35 1 -25 17 -46 8 -32 -14 4 -6 8 -23 11 -38 4 -24 3 -25 -10 -9 -7 9
-16 17 -19 17 -4 0 -4 -8 0 -17 5 -15 3 -15 -11 2 -10 11 -15 15 -12 10 2 -6
-7 -11 -23 -10 -15 0 -28 5 -28 11 0 6 11 10 23 8 13 -1 29 5 36 14 11 13 11
14 -1 7 -10 -5 -12 -4 -7 4 4 6 11 9 16 6 9 -6 21 20 13 29 -4 3 -11 6 -16 6
-6 0 -8 -3 -4 -6 9 -9 -23 -39 -42 -39 -9 0 -22 4 -28 9 -8 5 -18 4 -26 -3
-11 -8 -18 -6 -32 9 -19 20 -41 28 -30 10 3 -5 2 -10 -4 -10 -6 0 -17 -12 -26
-27 -13 -23 -15 -24 -10 -5 4 14 2 22 -6 22 -7 0 -9 -3 -6 -7 4 -3 0 -17 -9
-31 -13 -19 -13 -27 -3 -36 9 -8 11 -7 6 6 -9 26 4 29 23 5 13 -16 21 -19 31
-11 8 6 37 10 64 9 28 -1 57 2 66 6 19 10 62 -18 53 -33 -4 -7 -2 -8 5 -4 9 6
9 11 0 22 -9 12 -6 13 22 10 18 -2 39 -12 46 -22 12 -16 13 -16 13 -1 0 9 -4
17 -8 17 -12 0 -8 36 6 53 7 7 10 16 7 19 -3 2 4 4 16 3 11 -1 25 -8 31 -16 8
-11 9 -10 4 4 -3 10 -1 27 4 38 13 23 -2 26 -20 4z m-280 -42 c0 -9 3 -13 6
-10 4 3 15 2 25 -3 11 -6 20 -6 23 -1 4 5 1 12 -4 14 -6 3 -5 4 1 3 15 -3 20
-29 8 -47 -7 -11 -11 -10 -22 5 -11 15 -16 16 -22 6 -6 -9 -4 -11 6 -5 12 7
12 6 0 -6 -11 -11 -14 -12 -18 -1 -4 10 -9 10 -23 -3 -10 -9 -24 -14 -29 -10
-14 8 -14 25 0 25 5 0 7 -5 3 -12 -4 -7 -3 -8 5 -4 9 6 9 11 1 21 -8 9 -6 17
5 29 21 21 35 20 35 -1z m205 -3 c5 -8 12 -7 23 2 16 12 16 11 1 -7 -9 -11
-14 -26 -12 -32 3 -7 0 -13 -6 -13 -12 0 -24 19 -28 43 -3 19 12 23 22 7z"/>
<path d="M2641 436 c-7 -8 -8 -17 -3 -20 11 -6 39 -2 49 8 4 4 4 7 -2 6 -21
-5 -36 0 -30 10 9 15 -1 12 -14 -4z"/>
<path d="M2864 426 c1 -8 5 -18 8 -22 4 -3 5 1 4 10 -1 8 -5 18 -8 22 -4 3 -5
-1 -4 -10z"/>
<path d="M2505 472 c-21 -15 -12 -28 20 -28 18 0 31 4 28 9 -3 4 -7 6 -11 3
-3 -3 -10 1 -16 9 -6 8 -15 11 -21 7z"/>
<path d="M3036 464 c-8 -20 6 -24 34 -8 27 14 26 15 -7 19 -12 1 -24 -4 -27
-11z"/>
<path d="M3217 455 c-4 -9 -3 -13 2 -10 5 3 12 1 16 -5 4 -6 16 -5 35 5 26 14
30 13 38 -1 6 -10 12 -12 16 -6 11 18 -20 35 -43 23 -22 -12 -42 -11 -52 2 -3
5 -9 1 -12 -8z"/>
<path d="M3334 447 c2 -12 9 -21 16 -19 7 1 9 -4 6 -15 -3 -10 -1 -25 5 -33 8
-11 9 -9 3 10 -7 25 -7 25 15 6 16 -15 18 -21 9 -28 -7 -4 -8 -8 -2 -8 5 0 18
6 29 13 14 11 15 16 5 22 -9 6 -11 4 -5 -5 5 -8 3 -11 -5 -8 -7 2 -15 14 -17
26 -3 22 -2 22 23 5 24 -15 28 -15 38 -2 6 9 17 14 25 11 8 -3 12 1 9 9 -3 8
-18 14 -34 14 -16 0 -35 4 -42 9 -7 4 -19 3 -26 -4 -11 -8 -15 -8 -18 1 -2 7
-12 13 -21 15 -12 1 -16 -4 -13 -19z m54 -5 c10 9 15 9 21 0 4 -6 17 -10 28
-8 16 3 20 1 16 -10 -7 -18 -13 -18 -40 1 -23 16 -39 5 -28 -17 4 -7 -1 -4
-10 7 -9 11 -21 19 -26 17 -6 -1 -7 3 -4 9 5 7 10 8 18 0 7 -7 15 -7 25 1z"/>
<path d="M3838 463 c7 -3 16 -2 19 1 4 3 -2 6 -13 5 -11 0 -14 -3 -6 -6z"/>
<path d="M3895 461 c-3 -5 0 -13 6 -17 8 -5 9 -3 4 6 -6 10 -1 12 18 8 15 -3
24 -1 21 3 -7 12 -41 11 -49 0z"/>
<path d="M4110 465 c0 -7 30 -13 34 -7 3 4 -4 9 -15 9 -10 1 -19 0 -19 -2z"/>
<path d="M3163 453 c-15 -5 -17 -23 -4 -23 5 0 11 7 15 15 3 8 4 15 3 14 -1 0
-8 -3 -14 -6z"/>
<path d="M3776 445 c-3 -8 -1 -15 4 -15 6 0 10 7 10 15 0 8 -2 15 -4 15 -2 0
-6 -7 -10 -15z"/>
<path d="M3870 449 c0 -5 -6 -7 -12 -3 -7 4 -9 3 -5 -1 13 -15 36 -14 30 1 -6
17 -13 18 -13 3z"/>
<path d="M1930 439 c0 -5 5 -7 10 -4 6 3 10 8 10 11 0 2 -4 4 -10 4 -5 0 -10
-5 -10 -11z"/>
<path d="M2812 437 c-8 -10 -6 -13 7 -13 11 0 17 6 14 13 -3 7 -6 13 -8 13 -1
0 -7 -6 -13 -13z"/>
<path d="M2936 433 c-6 -14 -5 -15 5 -6 7 7 10 15 7 18 -3 3 -9 -2 -12 -12z"/>
<path d="M3734 434 c-18 -14 -18 -15 4 -4 12 6 22 13 22 15 0 8 -5 6 -26 -11z"/>
<path d="M3800 444 c0 -1 8 -8 17 -15 9 -8 14 -9 10 -2 -4 6 -1 13 5 16 7 3 3
4 -9 4 -13 -1 -23 -2 -23 -3z"/>
<path d="M3929 437 c6 -8 7 -18 3 -22 -4 -5 -1 -5 6 -1 10 6 10 11 1 22 -6 8
-14 14 -16 14 -3 0 0 -6 6 -13z"/>
<path d="M3976 438 c3 -4 11 -5 19 -1 21 7 19 12 -4 10 -11 0 -18 -5 -15 -9z"/>
<path d="M2016 431 c-4 -5 3 -7 14 -4 23 6 26 13 6 13 -8 0 -17 -4 -20 -9z"/>
<path d="M3643 423 c-35 -18 -40 -27 -21 -39 7 -4 8 -3 4 4 -4 6 6 18 24 27
16 8 30 18 30 20 0 6 1 7 -37 -12z"/>
<path d="M3690 431 c0 -5 5 -13 10 -16 6 -3 10 -2 10 4 0 5 -4 13 -10 16 -5 3
-10 2 -10 -4z"/>
<path d="M2079 428 c-6 -21 -5 -37 2 -32 5 3 7 9 4 14 -3 4 1 11 7 13 10 4 10
6 1 6 -7 1 -13 0 -14 -1z"/>
<path d="M3570 426 c0 -2 7 -9 15 -16 13 -11 14 -10 9 4 -5 14 -24 23 -24 12z"/>
<path d="M3847 419 c7 -7 15 -10 18 -7 3 3 -2 9 -12 12 -14 6 -15 5 -6 -5z"/>
<path d="M2174 403 c1 -7 6 -16 11 -20 4 -5 5 -2 0 6 -6 10 -4 13 7 9 8 -4 15
-1 15 6 0 6 -8 12 -17 12 -10 0 -17 -6 -16 -13z"/>
<path d="M3750 409 c0 -5 5 -7 10 -4 6 3 10 8 10 11 0 2 -4 4 -10 4 -5 0 -10
-5 -10 -11z"/>
<path d="M3780 416 c0 -2 7 -7 16 -10 8 -3 12 -2 9 4 -6 10 -25 14 -25 6z"/>
<path d="M2030 396 c7 -7 13 -7 20 0 6 6 3 10 -10 10 -13 0 -16 -4 -10 -10z"/>
<path d="M2270 405 c0 -2 10 -10 23 -16 20 -11 21 -11 8 4 -13 16 -31 23 -31
12z"/>
<path d="M3661 394 c0 -11 3 -14 6 -6 3 7 2 16 -1 19 -3 4 -6 -2 -5 -13z"/>
<path d="M2231 387 c-8 -10 -7 -14 2 -14 8 0 14 6 14 14 0 7 -1 13 -2 13 -2 0
-8 -6 -14 -13z"/>
<path d="M2387 387 c-3 -8 1 -14 8 -14 7 0 11 6 8 14 -3 7 -6 13 -8 13 -2 0
-5 -6 -8 -13z"/>
<path d="M2350 381 c0 -6 4 -13 10 -16 6 -3 7 1 4 9 -7 18 -14 21 -14 7z"/>
<path d="M2455 381 c-3 -5 0 -13 6 -17 7 -4 9 -3 5 4 -3 5 0 13 6 15 9 4 10 6
1 6 -6 1 -14 -3 -18 -8z"/>
<path d="M2550 381 c0 -6 4 -13 10 -16 6 -3 7 1 4 9 -7 18 -14 21 -14 7z"/>
<path d="M3190 381 c0 -5 5 -13 10 -16 6 -3 10 -2 10 4 0 5 -4 13 -10 16 -5 3
-10 2 -10 -4z"/>
<path d="M3295 380 c3 -5 14 -10 23 -10 15 0 15 2 2 10 -20 13 -33 13 -25 0z"/>
<path d="M3504 363 c-14 -23 -15 -26 -1 -15 9 8 22 10 29 6 8 -5 8 -1 -2 11
-14 17 -13 18 3 12 11 -4 16 -3 12 3 -10 16 -22 11 -41 -17z"/>
<path d="M3700 380 c-9 -6 -10 -10 -3 -10 6 0 15 5 18 10 8 12 4 12 -15 0z"/>
<path d="M3756 378 c3 -5 10 -6 15 -3 13 9 11 12 -6 12 -8 0 -12 -4 -9 -9z"/>
<path d="M2427 367 c-3 -8 1 -14 8 -14 7 0 11 6 8 14 -3 7 -6 13 -8 13 -2 0
-5 -6 -8 -13z"/>
<path d="M2780 370 c8 -5 20 -10 25 -10 6 0 3 5 -5 10 -8 5 -19 10 -25 10 -5
0 -3 -5 5 -10z"/>
<path d="M3340 373 c0 -6 5 -15 10 -18 6 -4 8 -10 5 -15 -3 -4 3 -14 12 -21
15 -12 16 -12 8 1 -6 8 -10 17 -10 20 -1 12 -24 44 -25 33z"/>
<path d="M3475 370 c3 -5 8 -10 11 -10 2 0 4 5 4 10 0 6 -5 10 -11 10 -5 0 -7
-4 -4 -10z"/>
<path d="M2266 358 c3 -5 10 -6 15 -3 13 9 11 12 -6 12 -8 0 -12 -4 -9 -9z"/>
<path d="M2334 356 c1 -8 5 -18 8 -22 4 -3 5 1 4 10 -1 8 -5 18 -8 22 -4 3 -5
-1 -4 -10z"/>
<path d="M2584 354 c-18 -14 -18 -15 4 -4 12 6 22 13 22 15 0 8 -5 6 -26 -11z"/>
<path d="M2650 366 c0 -2 7 -7 16 -10 8 -3 12 -2 9 4 -6 10 -25 14 -25 6z"/>
<path d="M2691 353 c0 -11 3 -13 6 -5 2 6 10 9 15 6 7 -4 8 -2 4 4 -11 18 -26
14 -25 -5z"/>
<path d="M2730 359 c0 -7 3 -10 6 -6 3 3 18 1 33 -4 15 -6 22 -6 16 -1 -18 17
-55 24 -55 11z"/>
<path d="M2851 367 c2 -1 14 -11 27 -21 12 -11 22 -16 22 -13 0 10 -31 37 -42
37 -6 0 -9 -1 -7 -3z"/>
<path d="M3276 362 c-3 -5 1 -9 9 -9 8 0 12 4 9 9 -3 4 -7 8 -9 8 -2 0 -6 -4
-9 -8z"/>
<path d="M3430 366 c0 -2 7 -7 16 -10 8 -3 12 -2 9 4 -6 10 -25 14 -25 6z"/>
<path d="M3066 343 c-6 -14 -5 -15 5 -6 7 7 10 15 7 18 -3 3 -9 -2 -12 -12z"/>
<path d="M3310 356 c0 -2 8 -10 18 -17 15 -13 16 -12 3 4 -13 16 -21 21 -21
13z"/>
<path d="M2478 343 c7 -3 16 -2 19 1 4 3 -2 6 -13 5 -11 0 -14 -3 -6 -6z"/>
<path d="M2600 335 c-7 -9 -11 -17 -9 -20 3 -2 10 5 17 15 14 24 10 26 -8 5z"/>
<path d="M2796 333 c-4 -9 -3 -20 1 -24 4 -4 9 3 9 17 2 28 -1 31 -10 7z"/>
<path d="M3390 336 c7 -7 13 -7 20 0 6 6 3 10 -10 10 -13 0 -16 -4 -10 -10z"/>
<path d="M3610 340 c0 -5 5 -10 11 -10 5 0 7 5 4 10 -3 6 -8 10 -11 10 -2 0
-4 -4 -4 -10z"/>
<path d="M2433 325 c0 -8 4 -15 9 -15 4 0 8 4 8 9 0 6 -4 12 -8 15 -5 3 -9 -1
-9 -9z"/>
<path d="M2715 331 c-3 -5 -2 -12 3 -15 5 -3 9 1 9 9 0 17 -3 19 -12 6z"/>
<path d="M2999 338 c-6 -21 -5 -37 2 -32 5 3 7 9 4 14 -3 4 1 11 7 13 10 4 10
6 1 6 -7 1 -13 0 -14 -1z"/>
<path d="M3034 326 c1 -8 5 -18 8 -22 4 -3 5 1 4 10 -1 8 -5 18 -8 22 -4 3 -5
-1 -4 -10z"/>
<path d="M3115 320 c3 -5 8 -10 11 -10 2 0 4 5 4 10 0 6 -5 10 -11 10 -5 0 -7
-4 -4 -10z"/>
<path d="M3147 319 c7 -7 15 -10 18 -7 3 3 -2 9 -12 12 -14 6 -15 5 -6 -5z"/>
<path d="M3213 305 c0 -8 4 -12 9 -9 5 3 6 10 3 15 -9 13 -12 11 -12 -6z"/>
<path d="M2855 300 c3 -5 8 -10 11 -10 2 0 4 5 4 10 0 6 -5 10 -11 10 -5 0 -7
-4 -4 -10z"/>
<path d="M3250 299 c0 -5 5 -7 10 -4 6 3 10 8 10 11 0 2 -4 4 -10 4 -5 0 -10
-5 -10 -11z"/>
<path d="M2915 281 c-3 -5 -2 -12 3 -15 5 -3 9 1 9 9 0 17 -3 19 -12 6z"/>
<path d="M2995 281 c-3 -5 -2 -12 3 -15 5 -3 9 1 9 9 0 17 -3 19 -12 6z"/>
<path d="M3380 280 c-9 -6 -10 -10 -3 -10 6 0 15 5 18 10 8 12 4 12 -15 0z"/>
</g>
</svg>
